<svg width="14" height="16" viewBox="0 0 14 16" fill="none" xmlns="http://www.w3.org/2000/svg">
<path fill-rule="evenodd" clip-rule="evenodd" d="M11.3076 4.0918C11.3076 1.7967 9.51932 0 6.97949 0C4.42983 0.000192166 2.6924 1.83523 2.69238 4.0918V6.00098H2.15332C0.965783 6.00121 0 6.89804 0 8.00098V14C5.34398e-05 15.103 0.965816 15.9998 2.15332 16H11.8457C13.0333 16 13.9999 15.1031 14 14V8.00098C14 6.89804 13.034 6.00121 11.8467 6.00098H11.3076V4.0918ZM1.07617 8.00098C1.07617 7.44926 1.55966 7.00024 2.15332 7H11.8457C12.4395 7 12.9229 7.44911 12.9229 8.00098V14C12.9228 14.5518 12.4401 14.9998 11.8467 15H2.15332C1.55969 14.9998 1.07623 14.5518 1.07617 14V8.00098ZM3.76855 4.0918C3.76857 2.38766 5.02363 1.00019 6.97949 1C8.91539 1 10.2305 2.35825 10.2305 4.0918V6.00098H3.76855V4.0918ZM5.92275 10.0005C5.92275 9.44819 6.40479 8.99968 6.99929 8.99968C7.59441 8.99968 8.07645 9.44819 8.07645 10.0005C8.07645 10.3703 7.85999 10.6936 7.53791 10.8665V12.5007C7.53791 12.7763 7.29689 12.9996 6.99929 12.9996C6.70239 12.9996 6.46137 12.7763 6.46137 12.5007V10.8665C6.1393 10.6936 5.92275 10.3709 5.92275 10.0005Z" fill="#868A9A"/>
</svg>
