<svg width="16" height="16" viewBox="0 0 16 16" fill="none" xmlns="http://www.w3.org/2000/svg">
<path fill-rule="evenodd" clip-rule="evenodd" d="M8.03162 0C9.37345 6.91025e-05 10.635 0.504811 11.5824 1.41992C12.5328 2.33678 13.0542 3.55291 13.0531 4.84863C13.0531 6.14388 12.5316 7.36095 11.5824 8.27734C10.6349 9.1935 9.37344 9.69718 8.03162 9.69727C4.53116 9.69727 1.50507 12.2284 0.998421 15.585C0.962004 15.8265 0.746825 16 0.501351 16C0.476895 16 0.454445 15.9988 0.431038 15.9941C0.154285 15.9558 -0.0343812 15.7092 0.00525712 15.4443C0.282081 13.6174 1.24524 11.9262 2.71619 10.6807C3.56341 9.96372 4.54736 9.42414 5.60877 9.09473C5.19683 8.87633 4.81754 8.60118 4.4828 8.27734C3.53512 7.36094 3.01307 6.14383 3.01307 4.84863C3.01309 3.55291 3.53514 2.3367 4.4828 1.41992C5.43021 0.504749 6.69306 0 8.03162 0ZM13.0853 11.0713C13.2853 10.885 13.6027 10.889 13.7972 11.082C14.3817 11.6627 14.8708 12.3318 15.2455 13.0645C15.6257 13.8104 15.8789 14.614 15.9955 15.4424C16.0318 15.7072 15.8394 15.953 15.5629 15.9883C15.5413 15.991 15.5173 15.9922 15.4955 15.9922C15.2468 15.9922 15.0316 15.815 14.9974 15.5723C14.7978 14.127 14.1311 12.8079 13.0756 11.7568C12.8835 11.5643 12.8876 11.2573 13.0853 11.0713ZM8.03162 0.969727C5.81838 0.969727 4.01609 2.70919 4.016 4.84863C4.016 6.98759 5.81936 8.72852 8.03162 8.72852C10.2483 8.72837 12.0491 6.98646 12.0492 4.84863C12.0491 2.7092 10.2482 0.96987 8.03162 0.969727Z" fill="#868A9A"/>
</svg>
