<svg width="14" height="14" viewBox="0 0 14 14" fill="none" xmlns="http://www.w3.org/2000/svg">
<g clip-path="url(#clip0_1_1496)">
<path d="M7 14C3.15 14 0 10.85 0 7C0 3.15 3.15 0 7 0C10.85 0 14 3.15 14 7C14 10.85 10.85 14 7 14ZM7 0.875C3.63125 0.875 0.875 3.63125 0.875 7C0.875 10.3687 3.63125 13.125 7 13.125C10.3687 13.125 13.125 10.3687 13.125 7C13.125 3.63125 10.3687 0.875 7 0.875Z" fill="#999999"/>
<path d="M7 4.15625C7.13125 4.15625 7.21875 4.24375 7.21875 4.375V7.875C7.21875 8.00625 7.13125 8.09375 7 8.09375C6.86875 8.09375 6.78125 8.00625 6.78125 7.875V4.375C6.78125 4.24375 6.86875 4.15625 7 4.15625Z" fill="#999999"/>
<path d="M7 8.3125C6.7375 8.3125 6.5625 8.1375 6.5625 7.875V4.375C6.5625 4.1125 6.7375 3.9375 7 3.9375C7.2625 3.9375 7.4375 4.1125 7.4375 4.375V7.875C7.4375 8.1375 7.2625 8.3125 7 8.3125Z" fill="#999999"/>
<path d="M8.83738 9.05625C8.79363 9.14375 8.66238 9.1875 8.53113 9.14375L7.04363 8.225C6.95613 8.18125 6.91238 8.05 6.95613 7.91875C6.99988 7.83125 7.13113 7.7875 7.26238 7.83125L8.74988 8.75C8.88113 8.79375 8.92488 8.96875 8.83738 9.05625Z" fill="#999999"/>
<path d="M8.66255 9.36248C8.57505 9.36248 8.48755 9.36248 8.4438 9.31873L6.9563 8.39998C6.73755 8.26873 6.6938 8.00623 6.82505 7.78748C6.9563 7.56873 7.2188 7.52498 7.43755 7.65623L8.92505 8.57498C9.1438 8.70623 9.18755 8.96873 9.0563 9.18748C8.9688 9.31873 8.7938 9.36248 8.66255 9.36248ZM7.17505 8.04998L8.8813 9.05623L8.7063 8.92498L7.17505 8.04998Z" fill="#999999"/>
</g>
<defs>
<clipPath id="clip0_1_1496">
<rect width="14" height="14" fill="white"/>
</clipPath>
</defs>
</svg>
