<svg width="6" height="6" viewBox="0 0 6 6" fill="none" xmlns="http://www.w3.org/2000/svg">
<path fill-rule="evenodd" clip-rule="evenodd" d="M5.26815 0.125613C5.43552 -0.0417542 5.70723 -0.0417542 5.8746 0.125613C6.03279 0.284194 6.04077 0.53549 5.89901 0.703738L5.8746 0.731082L3.60507 2.99964L5.8746 5.26819C6.0416 5.43545 6.0415 5.70634 5.8746 5.87366C5.71604 6.03222 5.46388 6.04092 5.2955 5.89905L5.26815 5.87366L2.9996 3.60511L0.731043 5.87366C0.563675 6.04103 0.292942 6.04103 0.125574 5.87366C-0.0328147 5.71516 -0.0414718 5.46388 0.100183 5.29554L0.125574 5.26819L2.39413 2.99964L0.125574 0.731082C-0.0417582 0.56375 -0.0416873 0.29299 0.125574 0.125613C0.284061 -0.0328733 0.535317 -0.0414447 0.703699 0.100223L0.731043 0.125613L2.9996 2.39319L5.26815 0.125613Z" fill="#0F93F2"/>
</svg>
