<svg width="6" height="6" viewBox="0 0 6 6" fill="none" xmlns="http://www.w3.org/2000/svg">
<path fill-rule="evenodd" clip-rule="evenodd" d="M5.269 0.125287C5.43632 -0.0417465 5.70717 -0.0417784 5.87447 0.125287C6.03303 0.283846 6.04173 0.536006 5.89986 0.704389L5.87447 0.731733L3.60591 2.99931L5.87447 5.26787C6.04184 5.43523 6.04184 5.70694 5.87447 5.87431C5.71603 6.03266 5.46469 6.0412 5.29634 5.8997L5.269 5.87431L2.99947 3.60576L0.73189 5.87431C0.564523 6.04168 0.292813 6.04168 0.125445 5.87431C-0.0329069 5.71574 -0.0407734 5.46352 0.101031 5.29521L0.125445 5.26787L2.39302 2.99931L0.125445 0.731733C-0.0418189 0.564388 -0.0418112 0.292637 0.125445 0.125287C0.284004 -0.0332713 0.536164 -0.040995 0.704547 0.100873L0.73189 0.125287L2.99947 2.39287L5.269 0.125287Z" fill="#0F93F2"/>
</svg>
