<svg width="14" height="14" viewBox="0 0 14 14" fill="none" xmlns="http://www.w3.org/2000/svg">
<g clip-path="url(#clip0_1_1865)">
<path d="M7 14C3.15 14 0 10.85 0 7C0 3.15 3.15 0 7 0C10.85 0 14 3.15 14 7C14 10.85 10.85 14 7 14ZM7 0.875C3.63125 0.875 0.875 3.63125 0.875 7C0.875 10.3687 3.63125 13.125 7 13.125C10.3687 13.125 13.125 10.3687 13.125 7C13.125 3.63125 10.3687 0.875 7 0.875Z" fill="#999999"/>
<path d="M7 4.15625C7.13125 4.15625 7.21875 4.24375 7.21875 4.375V7.875C7.21875 8.00625 7.13125 8.09375 7 8.09375C6.86875 8.09375 6.78125 8.00625 6.78125 7.875V4.375C6.78125 4.24375 6.86875 4.15625 7 4.15625Z" fill="#999999"/>
<path d="M7 8.3125C6.7375 8.3125 6.5625 8.1375 6.5625 7.875V4.375C6.5625 4.1125 6.7375 3.9375 7 3.9375C7.2625 3.9375 7.4375 4.1125 7.4375 4.375V7.875C7.4375 8.1375 7.2625 8.3125 7 8.3125Z" fill="#999999"/>
<path d="M8.83738 9.05613C8.79363 9.14363 8.66238 9.18738 8.53113 9.14363L7.04363 8.22488C6.95613 8.18113 6.91238 8.04988 6.95613 7.91863C6.99988 7.83113 7.13113 7.78738 7.26238 7.83113L8.74988 8.74988C8.88113 8.79363 8.92488 8.96863 8.83738 9.05613Z" fill="#999999"/>
<path d="M8.6623 9.3626C8.5748 9.3626 8.4873 9.3626 8.44355 9.31885L6.95605 8.4001C6.7373 8.26885 6.69355 8.00635 6.8248 7.7876C6.95605 7.56885 7.21855 7.5251 7.4373 7.65635L8.9248 8.5751C9.14355 8.70635 9.18731 8.96885 9.05606 9.1876C8.96856 9.31885 8.79355 9.3626 8.6623 9.3626ZM7.1748 8.0501L8.88105 9.05635L8.70605 8.9251L7.1748 8.0501Z" fill="#999999"/>
</g>
<defs>
<clipPath id="clip0_1_1865">
<rect width="14" height="14" fill="white"/>
</clipPath>
</defs>
</svg>
