<svg width="330" height="201" viewBox="0 0 330 201" fill="none" xmlns="http://www.w3.org/2000/svg">
<path d="M-0.337891 136.303L35.3234 150.011L72.5548 86.8437L109.786 119.701L145.964 84.6567L182.493 16.9961L219.373 98.4037L253.794 108.725L290.675 134.322L329.662 123.386" stroke="#2770EF" stroke-width="3"/>
<path d="M-0.337891 116.739L35.4122 106.295L72.3843 136.9L109.356 144.232L146.328 124.866L182.948 149.272L218.512 136.9L255.836 87.9375L292.104 149.272L329.662 144.232" stroke="#2EABFA" stroke-width="3"/>
<path d="M329.662 153.706L293.393 161.095L256.772 146.556L219.799 161.465L183.53 165.529L145.501 146.556L109.936 156.292L72.963 142.621L35.6377 153.706L-0.337878 146.556" stroke="#09B982" stroke-width="3"/>
<path d="M329.662 135.971L293.041 139.721L256.42 161.096L219.799 153.233H183.178H145.853H110.64L73.6672 139.721L35.2856 157.298L-0.337885 153.233" stroke="#FDC002" stroke-width="3"/>
</svg>
