<svg width="36" height="36" viewBox="0 0 36 36" fill="none" xmlns="http://www.w3.org/2000/svg">
<g filter="url(#filter0_i_1_1880)">
<circle cx="18" cy="18" r="18" fill="white"/>
</g>
<mask id="mask0_1_1880" style="mask-type:alpha" maskUnits="userSpaceOnUse" x="0" y="0" width="36" height="36">
<circle cx="18" cy="18" r="18" fill="url(#paint0_linear_1_1880)"/>
</mask>
<g mask="url(#mask0_1_1880)">
<g filter="url(#filter1_f_1_1880)">
<ellipse cx="10.5" cy="9" rx="12.5" ry="13" fill="#3CADFF"/>
</g>
<g filter="url(#filter2_f_1_1880)">
<ellipse cx="29.5" cy="32" rx="12.5" ry="13" fill="#FF5F3C"/>
</g>
<g filter="url(#filter3_f_1_1880)">
<circle cx="19" cy="19" r="13" fill="#E43CFF"/>
</g>
<path d="M28.3259 18.4933C28.9236 18.2201 28.9255 17.7789 28.3259 17.5056L12.0911 10.0984C11.4934 9.82611 11.0085 10.1392 11.0076 10.7872L11 16.1337L24.1493 17.999L11 19.8643L11.0076 25.2117C11.0076 25.8645 11.4915 26.1738 12.0911 25.9005L28.3259 18.4933Z" fill="white"/>
</g>
<defs>
<filter id="filter0_i_1_1880" x="0" y="0" width="36" height="36" filterUnits="userSpaceOnUse" color-interpolation-filters="sRGB">
<feFlood flood-opacity="0" result="BackgroundImageFix"/>
<feBlend mode="normal" in="SourceGraphic" in2="BackgroundImageFix" result="shape"/>
<feColorMatrix in="SourceAlpha" type="matrix" values="0 0 0 0 0 0 0 0 0 0 0 0 0 0 0 0 0 0 127 0" result="hardAlpha"/>
<feOffset/>
<feGaussianBlur stdDeviation="4"/>
<feComposite in2="hardAlpha" operator="arithmetic" k2="-1" k3="1"/>
<feColorMatrix type="matrix" values="0 0 0 0 1 0 0 0 0 1 0 0 0 0 1 0 0 0 0.88 0"/>
<feBlend mode="normal" in2="shape" result="effect1_innerShadow_1_1880"/>
</filter>
<filter id="filter1_f_1_1880" x="-18" y="-20" width="57" height="58" filterUnits="userSpaceOnUse" color-interpolation-filters="sRGB">
<feFlood flood-opacity="0" result="BackgroundImageFix"/>
<feBlend mode="normal" in="SourceGraphic" in2="BackgroundImageFix" result="shape"/>
<feGaussianBlur stdDeviation="8" result="effect1_foregroundBlur_1_1880"/>
</filter>
<filter id="filter2_f_1_1880" x="1" y="3" width="57" height="58" filterUnits="userSpaceOnUse" color-interpolation-filters="sRGB">
<feFlood flood-opacity="0" result="BackgroundImageFix"/>
<feBlend mode="normal" in="SourceGraphic" in2="BackgroundImageFix" result="shape"/>
<feGaussianBlur stdDeviation="8" result="effect1_foregroundBlur_1_1880"/>
</filter>
<filter id="filter3_f_1_1880" x="-10" y="-10" width="58" height="58" filterUnits="userSpaceOnUse" color-interpolation-filters="sRGB">
<feFlood flood-opacity="0" result="BackgroundImageFix"/>
<feBlend mode="normal" in="SourceGraphic" in2="BackgroundImageFix" result="shape"/>
<feGaussianBlur stdDeviation="8" result="effect1_foregroundBlur_1_1880"/>
</filter>
<linearGradient id="paint0_linear_1_1880" x1="5.85" y1="3.94373e-06" x2="40.5116" y2="12.7808" gradientUnits="userSpaceOnUse">
<stop offset="0.015" stop-color="#07C4FF"/>
<stop offset="1" stop-color="#FF3BE0"/>
</linearGradient>
</defs>
</svg>
