<svg width="32" height="32" viewBox="0 0 32 32" fill="none" xmlns="http://www.w3.org/2000/svg">
<rect x="0.5" y="-0.5" width="31" height="31" rx="3.5" transform="matrix(1 0 0 -1 0 31)" fill="#F7F8FC" stroke="#ADB2C2"/>
<path fill-rule="evenodd" clip-rule="evenodd" d="M16.5366 23.6771C16.5729 23.6465 16.6066 23.6128 16.6372 23.5765L21.5127 17.7869C21.8092 17.4348 21.7641 16.9091 21.4121 16.6127C21.2618 16.4861 21.0717 16.4168 20.8753 16.4168L17.6664 16.4168L17.6665 8.50008C17.6665 8.03985 17.2934 7.66675 16.8331 7.66675H15.1665C14.7062 7.66675 14.3331 8.03985 14.3331 8.50008L14.3331 16.4168L11.1243 16.4168C10.6641 16.4168 10.291 16.7898 10.291 17.2501C10.291 17.4465 10.3604 17.6366 10.4869 17.7869L15.3624 23.5765C15.6588 23.9285 16.1845 23.9736 16.5366 23.6771Z" fill="#ADB2C2"/>
</svg>
