<svg width="14" height="14" viewBox="0 0 14 14" fill="none" xmlns="http://www.w3.org/2000/svg">
<g clip-path="url(#clip0_29_1324)">
<path d="M7 14C3.15 14 0 10.85 0 7C0 3.15 3.15 0 7 0C10.85 0 14 3.15 14 7C14 10.85 10.85 14 7 14ZM7 0.875C3.63125 0.875 0.875 3.63125 0.875 7C0.875 10.3687 3.63125 13.125 7 13.125C10.3687 13.125 13.125 10.3687 13.125 7C13.125 3.63125 10.3687 0.875 7 0.875Z" fill="#999999"/>
<path d="M7 4.15625C7.13125 4.15625 7.21875 4.24375 7.21875 4.375V7.875C7.21875 8.00625 7.13125 8.09375 7 8.09375C6.86875 8.09375 6.78125 8.00625 6.78125 7.875V4.375C6.78125 4.24375 6.86875 4.15625 7 4.15625Z" fill="#999999"/>
<path d="M7 8.3125C6.7375 8.3125 6.5625 8.1375 6.5625 7.875V4.375C6.5625 4.1125 6.7375 3.9375 7 3.9375C7.2625 3.9375 7.4375 4.1125 7.4375 4.375V7.875C7.4375 8.1375 7.2625 8.3125 7 8.3125Z" fill="#999999"/>
<path d="M8.8375 9.05625C8.79375 9.14375 8.6625 9.1875 8.53125 9.14375L7.04375 8.225C6.95625 8.18125 6.9125 8.05 6.95625 7.91875C7 7.83125 7.13125 7.7875 7.2625 7.83125L8.75 8.75C8.88125 8.79375 8.925 8.96875 8.8375 9.05625Z" fill="#999999"/>
<path d="M8.6625 9.36251C8.575 9.36251 8.4875 9.36251 8.44375 9.31876L6.95625 8.40001C6.7375 8.26876 6.69375 8.00626 6.825 7.78751C6.95625 7.56876 7.21875 7.52501 7.4375 7.65626L8.925 8.57501C9.14375 8.70626 9.1875 8.96876 9.05625 9.18751C8.96875 9.31876 8.79375 9.36251 8.6625 9.36251ZM7.175 8.05001L8.88125 9.05626L8.70625 8.92501L7.175 8.05001Z" fill="#999999"/>
</g>
<defs>
<clipPath id="clip0_29_1324">
<rect width="14" height="14" fill="white"/>
</clipPath>
</defs>
</svg>
