<svg width="12" height="12" viewBox="0 0 12 12" fill="none" xmlns="http://www.w3.org/2000/svg">
<path fill-rule="evenodd" clip-rule="evenodd" d="M4.95765 1.24546C5.03771 1.22969 5.09539 1.15949 5.09539 1.07789C5.09599 0.965688 5.09599 0.81003 5.09599 0.701345C5.09599 0.675545 5.10996 0.651802 5.13259 0.639288C5.15513 0.626773 5.18273 0.627459 5.20459 0.641173C5.51573 0.835659 6.40742 1.39289 6.70905 1.58146C6.73091 1.59509 6.74411 1.619 6.74411 1.64472C6.74411 1.67043 6.73091 1.69434 6.70913 1.70797C6.40742 1.89654 5.51573 2.45386 5.20459 2.64826C5.18273 2.66197 5.15513 2.66266 5.13259 2.65014C5.10996 2.63763 5.09599 2.61389 5.09599 2.58809C5.09599 2.50786 5.09599 2.40243 5.09599 2.30943C5.09608 2.25654 5.07173 2.20649 5.02999 2.174C4.98833 2.14143 4.93391 2.12994 4.88256 2.14289C3.02059 2.64183 1.70333 4.3304 1.70333 6.28383C1.70333 8.6492 3.62368 10.5695 5.98905 10.5695C8.35442 10.5695 10.2748 8.6492 10.2748 6.28383C10.2748 5.53872 10.0805 4.80894 9.71213 4.16189C9.59899 3.96954 9.65273 3.72243 9.83556 3.59437C9.83385 3.59163 9.83402 3.59154 9.83428 3.59137C9.93276 3.52212 10.0557 3.49717 10.1734 3.52246C10.2911 3.54774 10.393 3.62103 10.4543 3.72457C10.8958 4.5026 11.1319 5.38392 11.1319 6.28383C11.1319 9.12226 8.82748 11.4267 5.98905 11.4267C3.15062 11.4267 0.846191 9.12226 0.846191 6.28383C0.846191 3.83557 2.57051 1.73394 4.95765 1.24546Z" fill="#7B819C"/>
</svg>
