<svg width="12" height="11" viewBox="0 0 12 11" fill="none" xmlns="http://www.w3.org/2000/svg">
<g clip-path="url(#clip0_29_536)">
<path d="M6.00133 0.628662C8.20161 0.628662 10.1648 2.18045 11.8865 5.21095C12.0418 5.48359 12.0418 5.83166 11.8865 6.10352C10.1648 9.13402 8.20161 10.6858 6.00133 10.6858C3.80106 10.6858 1.83784 9.13402 0.116184 6.10352C0.0401165 5.96829 0 5.81419 0 5.65723C0 5.50028 0.0401165 5.34618 0.116184 5.21095C1.83784 2.18045 3.80106 0.628662 6.00133 0.628662ZM6.08986 1.93295C4.34344 1.93295 2.72681 3.15238 1.2362 5.65723C2.72681 8.16209 4.34344 9.38152 6.08986 9.38152C7.83552 9.38152 9.45216 8.16209 10.9435 5.65723C9.45216 3.15238 7.83552 1.93295 6.08986 1.93295ZM6.00133 3.23566C7.26914 3.23566 8.29613 4.31995 8.29613 5.65645C8.29613 6.99373 7.26839 8.07723 6.00133 8.07723C4.73353 8.07723 3.70654 6.99295 3.70654 5.65645C3.70654 4.31916 4.73428 3.23566 6.00133 3.23566ZM6.00133 4.35295C5.31867 4.35295 4.76579 4.93673 4.76579 5.65645C4.76579 6.37616 5.31867 6.96152 6.00133 6.96152C6.684 6.96152 7.23688 6.37695 7.23688 5.65723C7.23688 4.93752 6.684 4.35295 6.00133 4.35295Z" fill="#666666"/>
</g>
<defs>
<clipPath id="clip0_29_536">
<rect width="12" height="11" fill="white"/>
</clipPath>
</defs>
</svg>
