<svg width="110" height="17" viewBox="0 0 110 17" fill="none" xmlns="http://www.w3.org/2000/svg">
<path d="M105.302 10.6867C105.112 12.2982 104.571 13.7639 103.41 14.9391C102.488 15.8734 101.36 16.4256 100.065 16.6434C98.8482 16.8461 97.6002 16.7427 96.433 16.3424C95.5473 16.0448 94.728 15.577 94.0209 14.9651C93.1028 14.1942 92.3786 13.2175 91.9069 12.1138C91.1085 10.2311 90.9833 8.2956 91.5125 6.31623C91.8589 4.98074 92.5619 3.76523 93.5458 2.8005C94.8801 1.49232 96.4804 0.749781 98.3543 0.621937C99.4983 0.534392 100.647 0.718767 101.706 1.16007C102.893 1.6598 103.909 2.49596 104.63 3.56608C104.68 3.64041 104.671 3.66568 104.604 3.71474C103.948 4.20184 103.294 4.69117 102.64 5.18273C102.442 5.33138 102.443 5.33138 102.29 5.13962C101.708 4.40302 101.013 3.81508 100.093 3.56088C98.8502 3.21748 97.6716 3.37655 96.579 4.08118C95.4479 4.8096 94.7518 5.85317 94.4353 7.14723C94.0955 8.4817 94.2184 9.89237 94.7837 11.1476C95.3026 12.322 96.1669 13.1738 97.3596 13.6294C98.6108 14.1073 99.8554 14.0285 101.007 13.2979C101.795 12.7977 102.226 12.0343 102.446 11.1364C102.479 11.0004 102.495 10.8599 102.529 10.7239C102.553 10.6265 102.513 10.6154 102.431 10.6154C101.319 10.6206 100.207 10.6198 99.0956 10.6295C98.9681 10.6295 98.9384 10.5975 98.9392 10.4727C98.9451 9.68926 98.9451 8.90534 98.9392 8.12093C98.9392 8.00126 98.9614 7.95963 99.0941 7.96112C100.116 7.96781 101.139 7.96112 102.162 7.96112V7.95146C103.19 7.95146 104.217 7.95146 105.244 7.95146C105.329 7.95146 105.376 7.96261 105.373 8.06295C105.347 8.93928 105.405 9.81636 105.302 10.6867Z" fill="black"/>
<path d="M91.4481 16.4881C90.6702 14.4213 89.9043 12.35 89.1502 10.2742C88.4734 8.41601 87.784 6.56598 87.0976 4.71297C86.624 3.43452 86.1436 2.15905 85.6737 0.879114C85.6203 0.730457 85.5506 0.68586 85.395 0.689577C84.8939 0.701469 84.3928 0.689577 83.8917 0.689577V0.696266C83.4151 0.696266 82.9392 0.696266 82.4633 0.696266C82.1994 0.696266 82.1987 0.696266 82.106 0.942293C81.7569 1.88849 81.404 2.83395 81.0586 3.78164C80.6605 4.8646 80.2744 5.94459 79.8844 7.02681C79.4471 8.23738 79.009 9.44843 78.5702 10.66C78.1106 11.9317 77.6547 13.205 77.1929 14.476C76.9468 15.1546 76.6896 15.8295 76.4383 16.5059C76.4161 16.5646 76.3724 16.6256 76.5006 16.6241C77.5384 16.6167 78.5761 16.6129 79.6139 16.6129C79.688 16.6129 79.7229 16.5981 79.7458 16.5267C79.7933 16.384 79.8518 16.245 79.9022 16.1031C80.2076 15.2371 80.5145 14.3719 80.8155 13.5016C80.8186 13.4811 80.8259 13.4615 80.837 13.4441C80.848 13.4266 80.8626 13.4117 80.8798 13.4002C80.897 13.3888 80.9163 13.381 80.9366 13.3775C80.957 13.3739 80.9778 13.3747 80.9978 13.3797C81.2128 13.3923 81.4285 13.3901 81.6435 13.3901H86.8463C86.9249 13.3901 86.9827 13.3901 87.0153 13.4882C87.1317 13.8457 87.2577 14.1995 87.386 14.5533C87.621 15.2037 87.8604 15.8533 88.0939 16.5044C88.1027 16.5401 88.1244 16.5713 88.1548 16.5919C88.1852 16.6125 88.2221 16.621 88.2584 16.6159C89.2908 16.6129 90.3231 16.6129 91.3554 16.6159C91.4666 16.6196 91.4896 16.6025 91.4481 16.4881ZM84.0948 10.6793C83.3587 10.6793 82.6219 10.6838 81.8858 10.6934C81.7524 10.6934 81.7376 10.6704 81.7843 10.5448C82.0867 9.65655 82.3773 8.7661 82.6738 7.87565C83.0523 6.73842 83.4309 5.60095 83.8094 4.46323C83.8324 4.39485 83.8539 4.32498 83.8761 4.25585C84.604 6.40394 85.3527 8.53642 86.0702 10.6778C85.4142 10.6793 84.7545 10.6778 84.0948 10.6793Z" fill="black"/>
<path d="M38.7654 15.5984C37.8388 16.2721 36.7349 16.6573 35.5914 16.7059C34.3223 16.772 33.1296 16.5133 32.0437 15.8347C30.9578 15.1561 30.2899 14.1564 29.9111 12.9463C29.8184 12.649 29.7428 12.3517 29.6783 12.0447C29.6561 11.9377 29.6783 11.9035 29.7932 11.8782C30.7262 11.6701 31.6578 11.4553 32.5878 11.2338C32.7049 11.2063 32.6715 11.2747 32.6767 11.326C32.7279 11.8069 32.802 12.2855 32.9992 12.73C33.1316 13.0474 33.3386 13.328 33.6023 13.548C33.8661 13.768 34.179 13.9208 34.5143 13.9936C35.4112 14.2114 36.257 14.12 37.0027 13.5298C37.3768 13.2368 37.643 12.8273 37.7595 12.3659C37.8759 11.9044 37.8361 11.4173 37.6461 10.9811C37.4386 10.5128 37.0642 10.1947 36.6358 9.94049C36.0317 9.57925 35.3757 9.33025 34.7159 9.0924C34.0911 8.87312 33.4808 8.61418 32.8887 8.31715C32.1853 7.95666 31.5582 7.49285 31.0882 6.84545C30.4433 5.95351 30.2773 4.9694 30.5545 3.91394C30.8703 2.71056 31.6664 1.89295 32.7205 1.30501C33.6485 0.784716 34.6559 0.583286 35.7114 0.598151C37.2762 0.621193 38.6164 1.16082 39.6757 2.33967C39.9191 2.61876 40.1397 2.91703 40.3354 3.23161C40.3895 3.3156 40.3814 3.34904 40.2932 3.39959C39.6727 3.75859 39.0567 4.12429 38.44 4.4885C38.337 4.55019 38.2354 4.6156 38.1376 4.68547C38.0635 4.73899 38.019 4.74047 37.9649 4.64905C37.8301 4.42531 37.6766 4.21346 37.506 4.01577C36.9345 3.34236 36.1881 3.1439 35.343 3.22715C34.9323 3.26389 34.5366 3.39982 34.1896 3.62332C33.5966 4.00611 33.3431 4.6706 33.5662 5.27712C33.6952 5.62721 33.9843 5.83533 34.2867 6.02041C34.7574 6.3036 35.2808 6.46638 35.7922 6.65814C36.6877 6.99114 37.5957 7.29514 38.4274 7.78125C39.5163 8.41824 40.3124 9.30201 40.6282 10.5418C41.1167 12.4558 40.3754 14.4329 38.7654 15.5984Z" fill="black"/>
<path d="M59.6481 6.87295C59.6481 6.64997 59.5851 6.58679 59.3649 6.57564C59.3241 6.57564 59.2841 6.57564 59.2441 6.57564C58.5073 6.57564 57.7705 6.58159 57.0344 6.57564C56.8862 6.57564 56.8476 6.61504 56.8565 6.75923C56.8698 6.97553 56.8565 7.19257 56.8565 7.43339C56.7498 7.34122 56.6704 7.26541 56.5845 7.19851C55.3176 6.22035 53.9078 6.00926 52.4112 6.50354C50.7152 7.06324 49.6737 8.28742 49.166 9.97096C48.8734 10.955 48.8587 12.0012 49.1237 12.9932C49.3825 14.0471 49.9724 14.9896 50.8064 15.6816C51.5125 16.2772 52.3759 16.6545 53.2918 16.7676C54.1635 16.8835 54.9967 16.7876 55.7943 16.3959C56.1856 16.2057 56.5464 15.9579 56.8647 15.6608C56.8647 15.9135 56.8728 16.138 56.8647 16.361C56.858 16.4896 56.8988 16.5193 57.0225 16.5186C57.8379 16.5186 58.6459 16.5186 59.4576 16.5223C59.651 16.5223 59.6503 16.5223 59.651 16.3238C59.651 13.9924 59.651 11.6612 59.651 9.33025C59.6491 8.51016 59.6481 7.69106 59.6481 6.87295ZM55.371 14.3207C54.1361 14.9153 52.7025 14.4693 51.919 13.3202C51.0636 12.07 51.2066 9.97988 52.8619 8.97571C53.844 8.38108 55.1501 8.45541 56.1063 9.35924C56.7498 9.96725 57.0618 10.7194 57.0767 11.7221C57.0144 12.8289 56.4888 13.7795 55.371 14.3207Z" fill="black"/>
<path d="M110 2.29061C110 7.00253 110 11.7145 110 16.4264C110 16.575 109.976 16.6181 109.814 16.6167C108.925 16.607 108.031 16.6092 107.139 16.6167C106.997 16.6167 106.966 16.575 106.966 16.4398C106.97 13.863 106.97 11.2863 106.966 8.70961H106.97V0.964588C106.97 0.746062 107.025 0.691059 107.246 0.691059H109.636C109.676 0.691059 109.716 0.691059 109.756 0.691059C109.93 0.704438 109.997 0.774307 109.998 0.948979C110 1.39644 110.001 1.84364 110 2.29061Z" fill="black"/>
<path d="M75.8683 8.998C75.8683 9.1199 75.829 9.13328 75.72 9.13179C75.1537 9.12585 74.5874 9.1318 74.0211 9.12585C73.9195 9.12585 73.8876 9.14517 73.8876 9.25741C73.8946 11.6191 73.8978 13.9805 73.8973 16.3416C73.8973 16.5498 73.8298 16.6137 73.6275 16.6137C72.8121 16.6137 72.0034 16.6092 71.1865 16.6137C71.0382 16.6137 70.9982 16.5728 70.9982 16.4279C71.0034 15.2319 70.9982 14.036 70.9982 12.84C70.9982 11.6389 70.9982 10.4385 70.9982 9.23808C70.9982 9.13477 70.9626 9.12288 70.8781 9.12436C70.592 9.13031 70.3066 9.12436 70.0212 9.13403C69.913 9.13403 69.8878 9.09983 69.8886 8.99726C69.8937 8.28371 69.893 7.57016 69.896 6.8566C69.896 6.67078 69.9516 6.61281 70.1376 6.61132C70.3785 6.61132 70.6194 6.60463 70.8589 6.61875C70.9715 6.62544 70.9908 6.59348 70.9908 6.49016C70.9849 5.56552 70.9834 4.64162 70.9812 3.71697C70.9812 3.39959 71.0412 3.34533 71.36 3.34533C72.1012 3.34533 72.8425 3.34533 73.5837 3.34161C73.8002 3.34161 73.8869 3.42189 73.8869 3.63893C73.8869 4.5933 73.8869 5.54842 73.8773 6.5028C73.8773 6.60537 73.9121 6.61578 73.9966 6.61504C74.5029 6.60835 75.0092 6.60612 75.5154 6.60389C75.7979 6.60389 75.8505 6.65369 75.8512 6.9339C75.8638 7.62144 75.8609 8.30972 75.8683 8.998Z" fill="black"/>
<path d="M47.788 8.99206C47.7946 9.09983 47.7687 9.14071 47.6493 9.14071C47.1082 9.13254 46.5671 9.14071 46.026 9.13328C45.9096 9.13328 45.8777 9.15855 45.8777 9.28194C45.8842 11.598 45.8871 13.9141 45.8866 16.2302C45.8866 16.2956 45.8866 16.361 45.8866 16.4256C45.8898 16.4522 45.887 16.4792 45.8783 16.5046C45.8696 16.5299 45.8553 16.5529 45.8365 16.572C45.8177 16.591 45.7948 16.6055 45.7696 16.6144C45.7444 16.6233 45.7175 16.6263 45.6909 16.6234C44.8392 16.6234 43.986 16.6189 43.1358 16.6234C43.0068 16.6234 43.0194 16.549 43.0194 16.4658V12.8571H43.0231C43.0231 11.6567 43.0231 10.4556 43.0231 9.25518C43.0231 9.14815 42.9883 9.13179 42.8949 9.13402C42.6095 9.13923 42.3241 9.13402 42.0388 9.13402C41.9394 9.13402 41.9113 9.10132 41.9113 9.00395C41.9113 8.2904 41.9113 7.57759 41.9113 6.86403C41.9113 6.67747 41.9683 6.62618 42.1581 6.6247C42.3983 6.6247 42.6392 6.61726 42.8793 6.6247C42.995 6.6299 43.0194 6.59645 43.0187 6.48422C43.0135 5.54991 43.0143 4.6156 43.0128 3.68129C43.0128 3.40776 43.0869 3.33567 43.3626 3.34236C44.0995 3.35871 44.8355 3.35648 45.5723 3.34236C45.8155 3.3379 45.8837 3.40702 45.8844 3.65528C45.8844 4.59479 45.8844 5.5343 45.8844 6.47381C45.8844 6.59422 45.9133 6.62247 46.0327 6.62247C46.5234 6.60983 47.0148 6.60909 47.5055 6.60537C47.7279 6.60537 47.7961 6.66409 47.7968 6.89079C47.7968 7.46386 47.7968 8.03619 47.7909 8.60926C47.788 8.73711 47.7813 8.86347 47.788 8.99206Z" fill="black"/>
<path d="M68.6403 8.62041C68.6403 8.73191 68.6025 8.73637 68.5106 8.73265C66.8702 8.67542 65.6197 9.35849 64.7369 10.7395C64.6902 10.8166 64.6678 10.9059 64.6724 10.9959C64.6724 12.8046 64.6724 14.6133 64.6724 16.4219C64.6724 16.6181 64.6679 16.6189 64.4708 16.6189C63.5813 16.6189 62.6969 16.6152 61.8096 16.6189C61.7044 16.6189 61.6755 16.5914 61.6755 16.4851C61.6977 13.289 61.6888 10.0929 61.6821 6.9012C61.6794 6.84107 61.6826 6.78081 61.6918 6.72132C61.6958 6.66992 61.7196 6.62212 61.7583 6.5881C61.7969 6.55408 61.8473 6.53654 61.8986 6.53922C62.7881 6.53922 63.6828 6.53922 64.5745 6.53922C64.6813 6.53922 64.6828 6.59496 64.682 6.67227C64.682 7.01789 64.682 7.36278 64.682 7.74557C64.9244 7.54414 65.132 7.34791 65.3795 7.20446C66.3291 6.64997 67.3394 6.43888 68.4261 6.66112C68.624 6.702 68.6403 6.73545 68.6403 6.93688C68.6389 7.49657 68.6344 8.05923 68.6403 8.62041Z" fill="black"/>
<path d="M13.4912 0.00104149C13.5538 0.00321137 13.6162 0.00722338 13.6787 0.0127602C13.6937 0.0140928 13.7087 0.0151413 13.7236 0.0166665C13.7906 0.0234692 13.8572 0.0333187 13.9238 0.0440102C13.9466 0.0476708 13.9695 0.0506413 13.9922 0.0547524C14.0129 0.0584963 14.034 0.0613725 14.0547 0.0654946C14.097 0.0739427 14.1388 0.0848106 14.1807 0.0947915C14.1992 0.0992245 14.2178 0.103724 14.2363 0.108463C14.3048 0.125954 14.3724 0.145533 14.4395 0.167057C14.4541 0.17178 14.4688 0.176785 14.4834 0.181706C14.545 0.202391 14.6058 0.225054 14.666 0.249088C14.6808 0.254999 14.6962 0.259573 14.7109 0.26569C14.7184 0.268788 14.726 0.272307 14.7334 0.275456C14.7913 0.299934 14.8479 0.327025 14.9043 0.354557C14.9254 0.364844 14.9469 0.374136 14.9678 0.384831C15.0215 0.412378 15.0738 0.442433 15.126 0.472721C15.1494 0.486345 15.1732 0.499584 15.1963 0.513737C15.25 0.546615 15.3025 0.581481 15.3545 0.617252C15.3711 0.628668 15.3879 0.639737 15.4043 0.651432C15.457 0.689056 15.5079 0.72902 15.5586 0.769596C15.5759 0.783487 15.5933 0.797371 15.6104 0.811588C15.6643 0.856555 15.7172 0.90293 15.7686 0.951237C15.7771 0.959272 15.7855 0.967529 15.7939 0.975651C15.8126 0.993569 15.8333 1.01003 15.8516 1.02839C15.8843 1.06121 15.915 1.09595 15.9463 1.12995C15.9564 1.14095 15.9666 1.15201 15.9766 1.16315C16.0832 1.28189 16.1805 1.40778 16.2695 1.53913C16.2747 1.54681 16.281 1.55386 16.2861 1.56159C16.2892 1.56621 16.2919 1.5716 16.2949 1.57624C16.383 1.70973 16.4612 1.84909 16.5303 1.99323C16.5354 2.00398 16.5409 2.01466 16.5459 2.02546C16.6508 2.25012 16.7323 2.48574 16.7881 2.72956C16.7892 2.73439 16.7899 2.73937 16.791 2.74421C16.7974 2.77282 16.8058 2.80133 16.8115 2.83014L16.8428 3.02546C16.8519 3.09041 16.8578 3.15559 16.8633 3.22077C16.8647 3.23801 16.867 3.25525 16.8682 3.27253C16.8729 3.34121 16.8752 3.40987 16.876 3.47858C16.8761 3.49125 16.8779 3.50398 16.8779 3.51667C16.8779 5.19216 17.5412 6.79963 18.7227 7.98444C19.9043 9.16928 21.5077 9.83503 23.1787 9.83503C23.6395 9.83489 24.0957 9.92591 24.5215 10.1026C24.9473 10.2794 25.3342 10.5386 25.6602 10.8653C25.9861 11.192 26.2445 11.58 26.4209 12.0069C26.5972 12.4338 26.6885 12.8915 26.6885 13.3536C26.6751 14.2778 26.2991 15.1598 25.6426 15.8087C24.9861 16.4574 24.1014 16.8213 23.1797 16.8214C22.2578 16.8214 21.3724 16.4575 20.7158 15.8087C20.0594 15.1598 19.6843 14.2777 19.6709 13.3536C19.6708 11.678 19.0068 10.0706 17.8252 8.88581C16.6436 7.70118 15.041 7.03624 13.3701 7.0362C13.365 7.0362 13.3597 7.03524 13.3545 7.03522C11.6891 7.0393 10.093 7.70467 8.91504 8.88581C7.73353 10.0705 7.06945 11.6771 7.06934 13.3526C7.06934 13.8146 6.9781 14.2724 6.80176 14.6993C6.62541 15.1261 6.36686 15.5142 6.04102 15.8409C5.71527 16.1674 5.32886 16.4269 4.90332 16.6036C4.47771 16.7803 4.02119 16.8712 3.56055 16.8712C3.09548 16.8779 2.6328 16.792 2.20117 16.6182C1.76968 16.4445 1.37708 16.1858 1.0459 15.8585C0.714756 15.5312 0.451983 15.1411 0.272461 14.711C0.0929251 14.2808 1.04992e-06 13.819 0 13.3526C8.62423e-06 12.8862 0.0929172 12.4244 0.272461 11.9942C0.451987 11.5641 0.714755 11.174 1.0459 10.8467C1.37708 10.5195 1.76969 10.2607 2.20117 10.087C2.63279 9.91321 3.09549 9.82727 3.56055 9.83405C5.23144 9.83393 6.83412 9.1682 8.01562 7.98346C9.19696 6.79873 9.86027 5.19202 9.86035 3.51667C9.86035 3.50377 9.86119 3.49049 9.86133 3.4776C9.86208 3.41087 9.8646 3.34412 9.86914 3.27741C9.87053 3.25689 9.87227 3.23635 9.87402 3.21589C9.87984 3.14805 9.88769 3.08035 9.89746 3.01276C9.89934 2.99975 9.9013 2.98669 9.90332 2.9737C9.91071 2.92633 9.91742 2.87828 9.92676 2.83112C9.93137 2.80788 9.93732 2.78489 9.94238 2.76178C9.94625 2.74414 9.95095 2.72663 9.95508 2.70905C10.0103 2.47441 10.0886 2.24711 10.1895 2.03034C10.1982 2.01161 10.2078 1.99326 10.2168 1.97467C10.2449 1.91691 10.2744 1.8599 10.3057 1.80378C10.3171 1.78315 10.3289 1.76266 10.3408 1.74225C10.3712 1.69011 10.4025 1.6385 10.4355 1.58796C10.4412 1.57928 10.4464 1.57022 10.4521 1.56159C10.4634 1.54472 10.4758 1.52844 10.4873 1.51178C10.5197 1.46502 10.5523 1.41832 10.5869 1.37311C10.6027 1.35253 10.6195 1.33277 10.6357 1.31256C10.6734 1.26557 10.7118 1.219 10.752 1.17389C10.7717 1.15169 10.7922 1.13014 10.8125 1.10846C10.8372 1.08216 10.8612 1.05495 10.8867 1.02936C10.8987 1.0173 10.9116 1.00608 10.9238 0.994206C10.9543 0.964446 10.986 0.935902 11.0176 0.907291C11.0467 0.880949 11.0756 0.85447 11.1055 0.829166C11.141 0.799095 11.1772 0.769912 11.2139 0.741276C11.2474 0.7151 11.281 0.689031 11.3154 0.664127C11.3477 0.64078 11.381 0.618995 11.4141 0.596745C11.4531 0.570467 11.4922 0.54426 11.5322 0.519596C11.5656 0.499009 11.5997 0.479504 11.6338 0.460026C11.6735 0.437349 11.7133 0.41472 11.7539 0.39362C11.7902 0.374753 11.8273 0.357528 11.8643 0.339909C11.905 0.320502 11.9458 0.301094 11.9873 0.283268C12.0006 0.277542 12.0139 0.271254 12.0273 0.26569C12.0563 0.253669 12.086 0.243706 12.1152 0.232487C12.1497 0.219281 12.1839 0.205549 12.2188 0.193424C12.265 0.177316 12.3116 0.162627 12.3584 0.148502C12.3951 0.13745 12.4317 0.126136 12.4688 0.116276C12.5257 0.101109 12.5831 0.088494 12.6406 0.0762368C12.6549 0.0731944 12.6692 0.0693361 12.6836 0.0664712C12.6898 0.0652345 12.6959 0.0637673 12.7021 0.0625649C12.7608 0.0511688 12.8198 0.0426207 12.8789 0.0342446C12.9112 0.0296853 12.9433 0.0242244 12.9756 0.0205727C13.0295 0.0144621 13.0836 0.0114787 13.1377 0.00787743C13.167 0.00593851 13.1963 0.00321692 13.2256 0.00201805C13.2773 -0.000118223 13.329 -9.68827e-05 13.3809 6.49268e-05C13.4177 0.000195345 13.4544 -0.000248819 13.4912 0.00104149Z" fill="url(#paint0_linear_29_1283)"/>
<path d="M13.3699 16.8724C15.3076 16.8724 16.8783 15.2973 16.8783 13.3544C16.8783 11.4115 15.3076 9.83643 13.3699 9.83643C11.4323 9.83643 9.86158 11.4115 9.86158 13.3544C9.86158 15.2973 11.4323 16.8724 13.3699 16.8724Z" fill="url(#paint1_linear_29_1283)"/>
<defs>
<linearGradient id="paint0_linear_29_1283" x1="0" y1="8.43578" x2="26.6885" y2="8.43578" gradientUnits="userSpaceOnUse">
<stop offset="0.0288461" stop-color="#0051FF"/>
<stop offset="0.480769" stop-color="#00A2FF"/>
<stop offset="1" stop-color="#00F7FF"/>
</linearGradient>
<linearGradient id="paint1_linear_29_1283" x1="9.86158" y1="13.3544" x2="16.8783" y2="13.3544" gradientUnits="userSpaceOnUse">
<stop offset="0.0288461" stop-color="#0051FF"/>
<stop offset="0.480769" stop-color="#00A2FF"/>
<stop offset="1" stop-color="#00F7FF"/>
</linearGradient>
</defs>
</svg>
