<svg width="27" height="17" viewBox="0 0 27 17" fill="none" xmlns="http://www.w3.org/2000/svg">
<path d="M13.4912 0.00104149C13.5538 0.00321137 13.6162 0.00722338 13.6787 0.0127602C13.6937 0.0140928 13.7087 0.0151413 13.7236 0.0166665C13.7906 0.0234692 13.8572 0.0333187 13.9238 0.0440102C13.9466 0.0476708 13.9695 0.0506413 13.9922 0.0547524C14.0129 0.0584963 14.034 0.0613725 14.0547 0.0654946C14.097 0.0739427 14.1388 0.0848106 14.1807 0.0947915C14.1992 0.0992245 14.2178 0.103724 14.2363 0.108463C14.3048 0.125954 14.3724 0.145533 14.4395 0.167057C14.4541 0.17178 14.4688 0.176785 14.4834 0.181706C14.545 0.202391 14.6058 0.225054 14.666 0.249088C14.6808 0.254999 14.6962 0.259573 14.7109 0.26569C14.7184 0.268788 14.726 0.272307 14.7334 0.275456C14.7913 0.299934 14.8479 0.327025 14.9043 0.354557C14.9254 0.364844 14.9469 0.374136 14.9678 0.384831C15.0215 0.412378 15.0738 0.442433 15.126 0.472721C15.1494 0.486345 15.1732 0.499584 15.1963 0.513737C15.25 0.546615 15.3025 0.581481 15.3545 0.617252C15.3711 0.628668 15.3879 0.639737 15.4043 0.651432C15.457 0.689056 15.5079 0.72902 15.5586 0.769596C15.5759 0.783487 15.5933 0.797371 15.6104 0.811588C15.6643 0.856555 15.7172 0.90293 15.7686 0.951237C15.7771 0.959272 15.7855 0.967529 15.7939 0.975651C15.8126 0.993569 15.8333 1.01003 15.8516 1.02839C15.8843 1.06121 15.915 1.09595 15.9463 1.12995C15.9564 1.14095 15.9666 1.15201 15.9766 1.16315C16.0832 1.28189 16.1805 1.40778 16.2695 1.53913C16.2747 1.54681 16.281 1.55386 16.2861 1.56159C16.2892 1.56621 16.2919 1.5716 16.2949 1.57624C16.383 1.70973 16.4612 1.84909 16.5303 1.99323C16.5354 2.00398 16.5409 2.01466 16.5459 2.02546C16.6508 2.25012 16.7323 2.48574 16.7881 2.72956C16.7892 2.73439 16.7899 2.73937 16.791 2.74421C16.7974 2.77282 16.8058 2.80133 16.8115 2.83014L16.8428 3.02546C16.8519 3.09041 16.8578 3.15559 16.8633 3.22077C16.8647 3.23801 16.867 3.25525 16.8682 3.27253C16.8729 3.34121 16.8752 3.40987 16.876 3.47858C16.8761 3.49125 16.8779 3.50398 16.8779 3.51667C16.8779 5.19216 17.5412 6.79963 18.7227 7.98444C19.9043 9.16928 21.5077 9.83503 23.1787 9.83503C23.6395 9.83489 24.0957 9.92591 24.5215 10.1026C24.9473 10.2794 25.3342 10.5386 25.6602 10.8653C25.9861 11.192 26.2445 11.58 26.4209 12.0069C26.5972 12.4338 26.6885 12.8915 26.6885 13.3536C26.6751 14.2778 26.2991 15.1598 25.6426 15.8087C24.9861 16.4574 24.1014 16.8213 23.1797 16.8214C22.2578 16.8214 21.3724 16.4575 20.7158 15.8087C20.0594 15.1598 19.6843 14.2777 19.6709 13.3536C19.6708 11.678 19.0068 10.0706 17.8252 8.88581C16.6436 7.70118 15.041 7.03624 13.3701 7.0362C13.365 7.0362 13.3597 7.03524 13.3545 7.03522C11.6891 7.0393 10.093 7.70467 8.91504 8.88581C7.73353 10.0705 7.06945 11.6771 7.06934 13.3526C7.06934 13.8146 6.9781 14.2724 6.80176 14.6993C6.62541 15.1261 6.36686 15.5142 6.04102 15.8409C5.71527 16.1674 5.32886 16.4269 4.90332 16.6036C4.47771 16.7803 4.02119 16.8712 3.56055 16.8712C3.09548 16.8779 2.6328 16.792 2.20117 16.6182C1.76968 16.4445 1.37708 16.1858 1.0459 15.8585C0.714756 15.5312 0.451983 15.1411 0.272461 14.711C0.0929251 14.2808 1.04992e-06 13.819 0 13.3526C8.62423e-06 12.8862 0.0929172 12.4244 0.272461 11.9942C0.451987 11.5641 0.714755 11.174 1.0459 10.8467C1.37708 10.5195 1.76969 10.2607 2.20117 10.087C2.63279 9.91321 3.09549 9.82727 3.56055 9.83405C5.23144 9.83393 6.83412 9.1682 8.01562 7.98346C9.19696 6.79873 9.86027 5.19202 9.86035 3.51667C9.86035 3.50377 9.86119 3.49049 9.86133 3.4776C9.86208 3.41087 9.8646 3.34412 9.86914 3.27741C9.87053 3.25689 9.87227 3.23635 9.87402 3.21589C9.87984 3.14805 9.88769 3.08035 9.89746 3.01276C9.89934 2.99975 9.9013 2.98669 9.90332 2.9737C9.91071 2.92633 9.91742 2.87828 9.92676 2.83112C9.93137 2.80788 9.93732 2.78489 9.94238 2.76178C9.94625 2.74414 9.95095 2.72663 9.95508 2.70905C10.0103 2.47441 10.0886 2.24711 10.1895 2.03034C10.1982 2.01161 10.2078 1.99326 10.2168 1.97467C10.2449 1.91691 10.2744 1.8599 10.3057 1.80378C10.3171 1.78315 10.3289 1.76266 10.3408 1.74225C10.3712 1.69011 10.4025 1.6385 10.4355 1.58796C10.4412 1.57928 10.4464 1.57022 10.4521 1.56159C10.4634 1.54472 10.4758 1.52844 10.4873 1.51178C10.5197 1.46502 10.5523 1.41832 10.5869 1.37311C10.6027 1.35253 10.6195 1.33277 10.6357 1.31256C10.6734 1.26557 10.7118 1.219 10.752 1.17389C10.7717 1.15169 10.7922 1.13014 10.8125 1.10846C10.8372 1.08216 10.8612 1.05495 10.8867 1.02936C10.8987 1.0173 10.9116 1.00608 10.9238 0.994206C10.9543 0.964446 10.986 0.935902 11.0176 0.907291C11.0467 0.880949 11.0756 0.85447 11.1055 0.829166C11.141 0.799095 11.1772 0.769912 11.2139 0.741276C11.2474 0.7151 11.281 0.689031 11.3154 0.664127C11.3477 0.64078 11.381 0.618995 11.4141 0.596745C11.4531 0.570467 11.4922 0.54426 11.5322 0.519596C11.5656 0.499009 11.5997 0.479504 11.6338 0.460026C11.6735 0.437349 11.7133 0.41472 11.7539 0.39362C11.7902 0.374753 11.8273 0.357528 11.8643 0.339909C11.905 0.320502 11.9458 0.301094 11.9873 0.283268C12.0006 0.277542 12.0139 0.271254 12.0273 0.26569C12.0563 0.253669 12.086 0.243706 12.1152 0.232487C12.1497 0.219281 12.1839 0.205549 12.2188 0.193424C12.265 0.177316 12.3116 0.162627 12.3584 0.148502C12.3951 0.13745 12.4317 0.126136 12.4688 0.116276C12.5257 0.101109 12.5831 0.088494 12.6406 0.0762368C12.6549 0.0731944 12.6692 0.0693361 12.6836 0.0664712C12.6898 0.0652345 12.6959 0.0637673 12.7021 0.0625649C12.7608 0.0511688 12.8198 0.0426207 12.8789 0.0342446C12.9112 0.0296853 12.9433 0.0242244 12.9756 0.0205727C13.0295 0.0144621 13.0836 0.0114787 13.1377 0.00787743C13.167 0.00593851 13.1963 0.00321692 13.2256 0.00201805C13.2773 -0.000118223 13.329 -9.68827e-05 13.3809 6.49268e-05C13.4177 0.000195345 13.4544 -0.000248819 13.4912 0.00104149Z" fill="url(#paint0_linear_29_1292)"/>
<defs>
<linearGradient id="paint0_linear_29_1292" x1="0" y1="8.43578" x2="26.6885" y2="8.43578" gradientUnits="userSpaceOnUse">
<stop offset="0.0288461" stop-color="#0051FF"/>
<stop offset="0.480769" stop-color="#00A2FF"/>
<stop offset="1" stop-color="#00F7FF"/>
</linearGradient>
</defs>
</svg>
