<svg width="9" height="9" viewBox="0 0 9 9" fill="none" xmlns="http://www.w3.org/2000/svg">
<path d="M6.24056 6.39958C6.7417 7.00489 7.2336 7.5985 7.76617 8.15758C7.86665 8.26237 7.96713 8.36778 8.06822 8.47257C8.11691 8.52373 8.17301 8.57243 8.13726 8.65749C8.1015 8.74256 8.02877 8.7518 7.95233 8.7518L6.86622 8.75303C6.5839 8.75303 6.30158 8.74934 6.01927 8.75673C5.96197 8.76033 5.90459 8.75113 5.85128 8.7298C5.79797 8.70848 5.75008 8.67557 5.71106 8.63345C5.26478 8.16929 4.83206 7.69281 4.47824 7.15037C4.42831 7.0727 4.39872 7.0616 4.30565 7.10167C3.85937 7.29029 3.40753 7.46597 2.95571 7.64041C2.09828 7.97204 1.239 8.29874 0.380343 8.62667C0.166448 8.70865 0.0801487 8.65071 0.081998 8.42572C0.0856964 7.95355 0.0918596 7.482 0.0887776 7.00798C0.0832381 6.9422 0.0999013 6.87646 0.136103 6.82127C0.172305 6.76607 0.225957 6.7246 0.288494 6.70347C0.81984 6.46862 1.37276 6.29109 1.91151 6.07535C2.38121 5.88672 2.85153 5.69995 3.32925 5.53722C3.39397 5.51503 3.38658 5.48852 3.35884 5.44291C2.97138 4.80109 2.62149 4.13734 2.31094 3.45498C2.30314 3.4279 2.28523 3.40485 2.2609 3.39062C2.23657 3.37639 2.20769 3.37207 2.18026 3.37855C1.49296 3.4519 0.799501 3.51354 0.106039 3.58443C0.0185085 3.59306 -0.000602146 3.56409 1.42652e-05 3.48519C0.00617837 2.99206 0.00802701 2.49893 0.0148075 2.0058C0.0148075 1.75924 0.083232 1.6976 0.329796 1.6828C0.699643 1.6563 1.06949 1.62486 1.43934 1.60144C1.52378 1.5965 1.52009 1.57123 1.49358 1.50651C1.33393 1.12064 1.17798 0.733529 1.02141 0.346423C0.925864 0.11157 0.998601 0 1.25318 0C1.70768 0 2.16095 0 2.61298 0C2.80407 0 2.89037 0.0616411 2.96002 0.246564C3.09892 0.612712 3.23679 0.979271 3.37363 1.34624C3.39891 1.41405 3.42294 1.45843 3.51294 1.44672C4.40057 1.33206 5.2882 1.28707 6.17584 1.21433C6.8169 1.16193 7.45859 1.11201 8.10027 1.05961C8.26116 1.04667 8.25746 1.04543 8.25746 1.20508C8.25746 1.72965 8.25746 2.25298 8.26485 2.7794C8.26485 2.88172 8.23711 2.91809 8.13726 2.9261C7.35934 2.99083 6.58267 3.06048 5.80476 3.12459C5.31718 3.16465 4.82898 3.19917 4.3414 3.23369C4.27421 3.23862 4.26681 3.25773 4.29763 3.31321C4.5744 3.81435 4.845 4.31857 5.15074 4.80307C5.15537 4.81507 5.16261 4.82588 5.17194 4.83471C5.18128 4.84355 5.19247 4.85019 5.20469 4.85415C5.21692 4.85811 5.22988 4.85928 5.24263 4.85759C5.25537 4.8559 5.26757 4.85138 5.27834 4.84437C6.15775 4.49713 7.0384 4.15276 7.92028 3.81127C7.97327 3.78923 8.02874 3.7737 8.08548 3.76504C8.1097 3.76094 8.13452 3.76234 8.15812 3.76913C8.18173 3.77591 8.20351 3.78791 8.22185 3.80425C8.24019 3.82058 8.25463 3.84082 8.2641 3.86348C8.27357 3.88614 8.27783 3.91064 8.27656 3.93517C8.27656 4.4246 8.2815 4.91403 8.27287 5.40346C8.27287 5.57605 8.13664 5.6679 7.99425 5.72522C7.43146 5.95083 6.86745 6.17459 6.29419 6.37431C6.27586 6.38175 6.25796 6.39019 6.24056 6.39958Z" fill="black"/>
</svg>
