<svg width="14" height="14" viewBox="0 0 14 14" fill="none" xmlns="http://www.w3.org/2000/svg">
<path d="M13 13V14H1V13H13ZM13 1H1V14C0.482323 14 0.0562145 13.6067 0.00488281 13.1025L0 13V1C1.93278e-07 0.447715 0.447715 2.41596e-08 1 0H13L13.1025 0.00488281C13.6067 0.0562146 14 0.482323 14 1V13L13.9951 13.1025C13.9472 13.573 13.573 13.9472 13.1025 13.9951L13 14V1Z" fill="#242E59"/>
<path d="M4 13V14H1V13H4ZM4 1H1V14L0.897461 13.9951C0.427034 13.9472 0.0527828 13.573 0.00488281 13.1025L0 13V1C1.93278e-07 0.447715 0.447715 8.05319e-09 1 0H4C4.55228 0 5 0.447715 5 1V13L4.99512 13.1025C4.94722 13.573 4.57297 13.9472 4.10254 13.9951L4 14V1Z" fill="#242E59"/>
</svg>
