<svg width="14" height="14" viewBox="0 0 14 14" fill="none" xmlns="http://www.w3.org/2000/svg">
<g clip-path="url(#clip0_108_310)">
<path d="M6.96976 0C3.08612 0 0 3.11636 0 6.96976C0 10.8515 3.08801 14 6.96976 14C10.8515 14 14 10.8515 14 6.96976C14 3.11636 10.8515 0 6.96976 0ZM11.2238 11.2219C10.672 11.7738 10.0275 12.2084 9.31129 12.5108C8.57046 12.8245 7.7824 12.9833 6.96976 12.9833C6.15713 12.9833 5.36906 12.8245 4.62824 12.5108C3.91199 12.2084 3.26944 11.7738 2.71571 11.2219C2.16388 10.6701 1.78213 10.0256 1.47975 9.30939C1.16604 8.56857 1.01485 7.7824 1.01485 6.96976C1.01485 6.15713 1.16604 5.36906 1.47975 4.62824C1.78213 3.91199 2.16388 3.26944 2.71571 2.71571C3.26755 2.16388 3.91199 1.79347 4.62824 1.49109C5.36906 1.17738 6.15713 1.02619 6.96976 1.02619C7.7824 1.02619 8.57046 1.17738 9.31129 1.49109C10.0275 1.79347 10.6701 2.16388 11.2238 2.71571C11.7756 3.26755 12.2103 3.91199 12.5127 4.62824C12.8264 5.36906 12.9852 6.15713 12.9852 6.96976C12.9852 7.7824 12.8264 8.57046 12.5127 9.31129C12.2103 10.0256 11.7756 10.6701 11.2238 11.2219Z" fill="black" fill-opacity="0.25"/>
<path d="M7.19281 7.09636V3.52833C7.19092 3.24674 6.94713 3.01807 6.66555 3.01807H6.66366C6.38018 3.01996 6.1534 3.24863 6.1534 3.53211L6.15529 7.30235C6.15529 7.44976 6.22332 7.58205 6.32726 7.67654L8.02057 9.3982C8.12073 9.49836 8.25113 9.54749 8.38153 9.54749C8.51193 9.54749 8.64422 9.49836 8.74249 9.3982C8.94281 9.19787 8.94281 8.87471 8.74249 8.67438L7.19281 7.09636Z" fill="black" fill-opacity="0.25"/>
</g>
<defs>
<clipPath id="clip0_108_310">
<rect width="14" height="14" fill="white"/>
</clipPath>
</defs>
</svg>
