<svg width="16" height="12" viewBox="0 0 16 12" fill="none" xmlns="http://www.w3.org/2000/svg">
<g clip-path="url(#clip0_108_217)">
<path d="M11.7999 2.47259C10.9335 2.29099 10.0303 2.37567 9.21561 2.71488C8.40097 3.05409 7.71529 3.63101 7.25371 4.36559C6.79213 5.10017 6.57754 5.95598 6.63972 6.8143C6.70189 7.67261 7.03774 8.49087 7.60068 9.15552C7.56116 9.91985 6.26437 10.4779 5.39695 10.8292C5.05962 10.9639 4.23413 11.0944 3.58598 11.4027C2.57234 11.2432 1.65183 10.7346 0.993064 9.96996C0.334293 9.20537 -0.018636 8.23599 -0.0010763 7.23939C0.0164834 6.24279 0.403356 5.2857 1.08868 4.54342C1.774 3.80114 2.71189 3.32337 3.73055 3.19762C3.93553 2.35145 4.40927 1.5892 5.08482 1.01859C5.76038 0.447985 6.60359 0.09787 7.49529 0.017727C8.38699 -0.062416 9.28209 0.131466 10.0541 0.571973C10.8261 1.01248 11.436 1.67734 11.7975 2.47259H11.7999Z" fill="#929292"/>
<path d="M15.999 7.38176C15.9855 9.69579 14.0127 11.5505 11.6282 11.5505H6.6743C4.8667 11.5505 3.5728 11.8517 3.0562 11.9962C3.03694 12.0007 3.01673 11.9993 2.99831 11.9923C2.97989 11.9852 2.96416 11.9728 2.95326 11.9568C2.94236 11.9407 2.93682 11.9218 2.93739 11.9026C2.93796 11.8834 2.94462 11.8648 2.95645 11.8494C3.10486 11.6878 3.28278 11.5543 3.48124 11.4555C3.51593 11.4373 3.55111 11.4195 3.58677 11.4027C4.23493 11.0944 5.06283 10.9639 5.39775 10.8292C6.26517 10.4784 7.56147 9.91985 7.60099 9.15552C7.61088 8.92456 7.58274 8.69354 7.51762 8.47118C7.51627 8.46688 7.51514 8.46251 7.51425 8.45809C7.50606 8.43049 7.49835 8.40289 7.49208 8.37529C7.48292 8.34068 7.47473 8.3056 7.46654 8.27051C7.22839 7.23083 7.40617 6.14215 7.96386 5.22491C8.0053 5.15708 8.04819 5.09066 8.09349 5.02564C8.4878 4.45278 9.02171 3.98325 9.64782 3.65874C10.2739 3.33422 10.9729 3.16474 11.6827 3.16535C11.8051 3.16535 11.927 3.17002 12.0475 3.17985C12.1193 3.18593 12.192 3.19388 12.2614 3.20323C13.3008 3.34063 14.2532 3.84038 14.941 4.60924C15.6287 5.3781 16.0048 6.36356 15.999 7.38176Z" fill="#CFCFCF"/>
</g>
<defs>
<clipPath id="clip0_108_217">
<rect width="16" height="12" fill="white"/>
</clipPath>
</defs>
</svg>
