<svg width="9" height="8" viewBox="0 0 9 8" fill="none" xmlns="http://www.w3.org/2000/svg">
<path d="M8.39312 0C8.69023 0 8.80611 0.109721 8.80611 0.402516C8.80611 0.869756 8.8018 1.33761 8.80611 1.80485C8.80611 1.90286 8.77344 1.9195 8.68283 1.91889C8.11388 1.91457 7.54494 1.91889 6.97661 1.91396C6.89031 1.91396 6.8564 1.92259 6.8564 2.02306C6.86339 3.23492 6.86586 4.4472 6.8638 5.65988C6.8638 5.76036 6.88846 5.78317 6.98708 5.78317C7.60843 5.77392 8.23038 5.7733 8.85173 5.76652C8.91337 5.76652 8.92816 5.7807 8.92816 5.83864C8.92508 6.32807 8.92816 6.8175 8.92138 7.30693C8.92154 7.35467 8.91193 7.40194 8.89316 7.44583C8.87438 7.48972 8.84682 7.52931 8.81218 7.56216C8.77754 7.59501 8.73656 7.62042 8.69173 7.63685C8.64691 7.65328 8.5992 7.66036 8.55153 7.65767C7.48309 7.66137 6.41608 7.66281 5.35051 7.66199C5.14278 7.66199 5.01457 7.51651 5.01457 7.28721C5.01457 6.51176 5.01457 5.7357 5.01457 4.95964C5.01457 3.98078 5.01457 3.00192 5.01457 2.02306C5.01457 1.93306 4.99854 1.90964 4.89992 1.91211C4.47274 1.92197 4.04496 1.9195 3.61717 1.9195C3.55553 1.9195 3.51423 1.9195 3.49758 1.99964C3.23931 3.27499 2.88117 4.52692 2.51996 5.77269C2.37448 6.2763 2.21545 6.77621 2.05518 7.27488C1.94669 7.61267 1.87026 7.66137 1.52075 7.66199H0.277453C0.0345867 7.66199 -0.0356855 7.55535 0.0487628 7.32974C0.38409 6.43595 1.39439 2.88604 1.62246 2.02368C1.6428 1.94539 1.64712 1.91026 1.54171 1.91272C1.06523 1.92197 0.589354 1.91704 0.112868 1.92443C0.013626 1.92443 -0.00116517 1.88992 6.76547e-05 1.80115C0.00438253 1.37336 0.00376657 0.945574 0.00438298 0.518401C0.00499939 0.0912281 0.0962263 0.0030813 0.514769 0.0030813C1.82341 0.00493053 7.0703 0 8.39312 0Z" fill="black"/>
</svg>
