<svg width="6" height="15" viewBox="0 0 6 15" fill="none" xmlns="http://www.w3.org/2000/svg">
<path d="M5.15135 7.3396C5.15135 6.60279 5.15135 5.86638 5.15135 5.13039C5.15135 3.54744 5.15135 1.96532 5.15135 0.384024C5.15135 0.150404 5.00895 0.00431488 4.77533 0C4.66993 0 4.56391 0.00369843 4.45788 0.00369843L0.383406 0.00739686C0.15595 0.00739686 0.0406815 0.105406 0.00986092 0.32978C0.00449957 0.37787 0.00223563 0.426255 0.0030813 0.474636C0.0030813 3.57477 0.0020547 6.6745 0 9.77381C0 11.2643 0 12.7548 0 14.2453C0 14.5473 0.147938 14.6909 0.446281 14.6897C0.8827 14.6897 1.31912 14.6897 1.75554 14.6897C2.75659 14.6897 3.75764 14.6876 4.75869 14.6835C4.81158 14.6862 4.86444 14.6779 4.91397 14.6591C4.96349 14.6404 5.00862 14.6117 5.04652 14.5747C5.08442 14.5377 5.11428 14.4933 5.13423 14.4443C5.15417 14.3952 5.16378 14.3426 5.16244 14.2896V7.3396H5.15135ZM3.34896 8.09779C3.34403 8.62236 3.33355 11.8807 3.33725 12.6346C3.33725 12.7277 3.32492 12.7609 3.21767 12.7579C2.78125 12.7498 2.34483 12.7511 1.90779 12.7579C1.80547 12.7579 1.78451 12.7277 1.78451 12.6315C1.78451 11.1151 1.78081 9.59834 1.77341 8.08115C1.77341 7.9856 1.81348 7.9856 1.88313 7.9856C2.34174 7.9856 2.80035 7.98868 3.25896 7.9819C3.36067 7.98252 3.34957 8.03553 3.34896 8.09902V8.09779ZM3.34341 5.95145C3.34341 6.01679 3.32492 6.03343 3.26081 6.03281C2.7985 6.0285 2.3362 6.0248 1.87266 6.02788C1.76972 6.02788 1.78636 5.97056 1.78636 5.90953C1.78636 4.68 1.78636 3.45026 1.78636 2.22031C1.78636 1.91211 1.78636 1.91211 2.08963 1.91211C2.47797 1.91211 2.86569 1.91211 3.25341 1.90718C3.34464 1.90718 3.35081 1.93615 3.35019 2.01012C3.34711 2.66968 3.34095 5.2962 3.34341 5.95268V5.95145Z" fill="black"/>
</svg>
