<svg width="16" height="16" viewBox="0 0 16 16" fill="none" xmlns="http://www.w3.org/2000/svg">
<path d="M13.5 1.51562H2.46875C1.65027 1.51562 0.984375 2.18152 0.984375 3V11.0312C0.984375 11.8497 1.65027 12.5156 2.46875 12.5156H5.79403L7.64784 14.3549C7.74531 14.4516 7.87266 14.5 8 14.5C8.12734 14.5 8.2547 14.4516 8.35216 14.3549L10.206 12.5156H13.5C14.3185 12.5156 14.9844 11.8497 14.9844 11.0312V3C14.9844 2.18152 14.3185 1.51562 13.5 1.51562ZM13.9844 11.0312C13.9844 11.2983 13.7671 11.5156 13.5 11.5156H10C9.86807 11.5156 9.74149 11.5678 9.64784 11.6607L8 13.2957L6.35216 11.6607C6.2585 11.5678 6.13193 11.5156 6 11.5156H2.46875C2.20167 11.5156 1.98438 11.2983 1.98438 11.0312V3C1.98438 2.73292 2.20167 2.51562 2.46875 2.51562H13.5C13.7671 2.51562 13.9844 2.73292 13.9844 3V11.0312Z" fill="black" fill-opacity="0.45"/>
<path d="M3 6.98438C3 7.24959 3.10536 7.50395 3.29289 7.69148C3.48043 7.87902 3.73478 7.98438 4 7.98438C4.26522 7.98438 4.51957 7.87902 4.70711 7.69148C4.89464 7.50395 5 7.24959 5 6.98438C5 6.71916 4.89464 6.4648 4.70711 6.27727C4.51957 6.08973 4.26522 5.98438 4 5.98438C3.73478 5.98438 3.48043 6.08973 3.29289 6.27727C3.10536 6.4648 3 6.71916 3 6.98438Z" fill="black" fill-opacity="0.45"/>
<path d="M7 6.98438C7 7.24959 7.10536 7.50395 7.29289 7.69148C7.48043 7.87902 7.73478 7.98438 8 7.98438C8.26522 7.98438 8.51957 7.87902 8.70711 7.69148C8.89464 7.50395 9 7.24959 9 6.98438C9 6.71916 8.89464 6.4648 8.70711 6.27727C8.51957 6.08973 8.26522 5.98438 8 5.98438C7.73478 5.98438 7.48043 6.08973 7.29289 6.27727C7.10536 6.4648 7 6.71916 7 6.98438Z" fill="black" fill-opacity="0.45"/>
<path d="M11 6.98438C11 7.24959 11.1054 7.50395 11.2929 7.69148C11.4804 7.87902 11.7348 7.98438 12 7.98438C12.2652 7.98438 12.5196 7.87902 12.7071 7.69148C12.8946 7.50395 13 7.24959 13 6.98438C13 6.71916 12.8946 6.4648 12.7071 6.27727C12.5196 6.08973 12.2652 5.98438 12 5.98438C11.7348 5.98438 11.4804 6.08973 11.2929 6.27727C11.1054 6.4648 11 6.71916 11 6.98438Z" fill="black" fill-opacity="0.45"/>
</svg>
