<svg width="18" height="18" viewBox="0 0 18 18" fill="none" xmlns="http://www.w3.org/2000/svg">
<path d="M7.1914 1.68488H1.92412C1.48783 1.68488 1.13403 2.03885 1.13403 2.47512V7.74188C1.13403 8.17816 1.48783 8.53214 1.92412 8.53214H7.1914C7.62716 8.53214 7.98145 8.17816 7.98145 7.74189V2.47512C7.98145 2.03883 7.62715 1.68488 7.1914 1.68488ZM15.2889 9.78259H10.0214C9.58516 9.78259 9.23155 10.1362 9.23155 10.5725V15.8396C9.23155 16.2759 9.58516 16.6295 10.0215 16.6295H15.2889C15.7249 16.6295 16.0788 16.2759 16.0788 15.8396V10.5725C16.0788 10.1362 15.7248 9.78259 15.2889 9.78259ZM7.1914 9.78259H1.92412C1.48783 9.78259 1.13403 10.1362 1.13403 10.5725V15.8396C1.13403 16.2759 1.48783 16.6295 1.92412 16.6295H7.1914C7.62716 16.6295 7.98145 16.2759 7.98145 15.8396V10.5725C7.98145 10.1362 7.62715 9.78259 7.1914 9.78259Z" fill="#929292"/>
<path d="M12.2233 1.45416L16.4801 3.7014C16.8335 3.88752 16.9684 4.32418 16.7821 4.67708L14.5352 8.934C14.3491 9.28622 13.9118 9.42132 13.5592 9.23521L9.30228 6.98832C8.94955 6.8015 8.81462 6.36556 9.00039 6.01264L11.248 1.75499C11.4344 1.40315 11.8711 1.26804 12.2233 1.45416Z" fill="#CFCFCF"/>
</svg>
