<svg width="18" height="14" viewBox="0 0 18 14" fill="none" xmlns="http://www.w3.org/2000/svg">
<g clip-path="url(#clip0_108_272)">
<path d="M13.2751 2.86571C12.3004 2.65524 11.2842 2.75339 10.3678 3.14653C9.45129 3.53967 8.6799 4.20831 8.16063 5.05969C7.64135 5.91106 7.39994 6.90296 7.46988 7.89774C7.53983 8.89252 7.91766 9.84087 8.55097 10.6112C8.50651 11.4971 7.04762 12.1438 6.07178 12.551C5.69228 12.7071 4.7636 12.8584 4.03443 13.2156C2.89409 13.0308 1.85852 12.4413 1.1174 11.5551C0.376285 10.669 -0.0207604 9.54547 -0.0010058 8.39042C0.0187488 7.23537 0.453981 6.1261 1.22497 5.2658C1.99595 4.4055 3.05108 3.85176 4.19707 3.70602C4.42767 2.72532 4.96063 1.84187 5.72063 1.18054C6.48063 0.519203 7.42924 0.113421 8.4324 0.0205358C9.43557 -0.0723496 10.4426 0.152359 11.3111 0.662905C12.1796 1.17345 12.8657 1.94402 13.2724 2.86571H13.2751Z" fill="#929292"/>
<path d="M17.9989 8.55539C17.9837 11.2373 15.7642 13.3869 13.0817 13.3869H7.50857C5.47502 13.3869 4.01938 13.736 3.43821 13.9036C3.41655 13.9088 3.39381 13.9072 3.37309 13.899C3.35236 13.8908 3.33467 13.8764 3.32241 13.8578C3.31014 13.8392 3.30391 13.8173 3.30455 13.795C3.30519 13.7727 3.31268 13.7512 3.32599 13.7333C3.49295 13.5461 3.69312 13.3913 3.91638 13.2769C3.95541 13.2557 3.99499 13.2351 4.03511 13.2156C4.76428 12.8583 5.69567 12.7071 6.07245 12.5509C7.0483 12.1443 8.50664 11.497 8.5511 10.6112C8.56223 10.3435 8.53057 10.0757 8.45731 9.81803C8.45579 9.81304 8.45452 9.80797 8.45351 9.80285C8.4443 9.77086 8.43562 9.73888 8.42858 9.70689C8.41828 9.66677 8.40906 9.62611 8.39984 9.58545C8.13193 8.38046 8.33192 7.11869 8.95933 6.05561C9.00595 5.977 9.0542 5.90001 9.10516 5.82466C9.54877 5.16071 10.1494 4.61653 10.8538 4.24042C11.5582 3.8643 12.3445 3.66788 13.143 3.66858C13.2807 3.66858 13.4179 3.674 13.5534 3.68539C13.6342 3.69244 13.716 3.70165 13.7941 3.71249C14.9634 3.87174 16.0349 4.45094 16.8086 5.34205C17.5823 6.23315 18.0054 7.3753 17.9989 8.55539Z" fill="#CFCFCF"/>
</g>
<defs>
<clipPath id="clip0_108_272">
<rect width="18" height="13.908" fill="white"/>
</clipPath>
</defs>
</svg>
