<svg width="16" height="16" viewBox="0 0 16 16" fill="none" xmlns="http://www.w3.org/2000/svg">
<path d="M7.25309 1.11099C9.2725 1.11099 10.9998 2.94893 10.9998 5.13387C10.9998 6.48182 10.3793 7.64674 9.33056 8.34074C9.7388 8.48945 10.1234 8.69631 10.4845 8.95084L10.1126 9.88411C10.069 9.98847 10.0051 10.082 9.92494 10.1587C9.84476 10.2354 9.75012 10.2935 9.64717 10.3293L7.293 11.1853C6.59991 11.437 6.59991 12.3722 7.293 12.6248L9.64717 13.4818C9.75004 13.5175 9.84462 13.5754 9.92479 13.652C10.005 13.7285 10.0689 13.8219 10.1126 13.9261L10.5843 15.111H0.999798C0.999798 12.5152 2.59192 9.44655 4.85084 8.42844L5.05858 8.34074C4.165 7.64674 3.56353 6.48182 3.56353 5.13482C3.56353 2.94893 5.19466 1.11195 7.25309 1.11195V1.11099Z" fill="#929292"/>
<path d="M13.0283 8.47492L13.6575 10.1261C13.6856 10.2007 13.7293 10.2685 13.7855 10.3251C13.8418 10.3817 13.9094 10.4257 13.9838 10.4542L15.635 11.0825C15.7423 11.1232 15.8346 11.1955 15.8998 11.2899C15.9649 11.3843 15.9998 11.4963 15.9998 11.611C15.9998 11.7257 15.9649 11.8377 15.8998 11.9321C15.8346 12.0265 15.7423 12.0989 15.635 12.1395L13.9838 12.7687C13.9095 12.7971 13.8421 12.8408 13.7858 12.897C13.7296 12.9533 13.6858 13.0208 13.6575 13.0951L13.0283 14.7462C12.9876 14.8535 12.9153 14.9458 12.8209 15.011C12.7265 15.0761 12.6145 15.111 12.4998 15.111C12.3851 15.111 12.2731 15.0761 12.1787 15.011C12.0843 14.9458 12.012 14.8535 11.9713 14.7462L11.3421 13.0951C11.3138 13.0208 11.27 12.9533 11.2138 12.897C11.1575 12.8408 11.0901 12.7971 11.0157 12.7687L9.36457 12.1395C9.25733 12.0989 9.165 12.0265 9.09984 11.9321C9.03469 11.8377 8.9998 11.7257 8.9998 11.611C8.9998 11.4963 9.03469 11.3843 9.09984 11.2899C9.165 11.1955 9.25733 11.1232 9.36457 11.0825L11.0157 10.4534C11.0901 10.425 11.1575 10.3812 11.2138 10.325C11.27 10.2688 11.3138 10.2013 11.3421 10.127L11.9713 8.4758C12.012 8.36855 12.0843 8.27622 12.1787 8.21107C12.2731 8.14592 12.3851 8.11102 12.4998 8.11102C12.6145 8.11102 12.7265 8.14592 12.8209 8.21107C12.9153 8.27622 12.9876 8.36768 13.0283 8.47492Z" fill="#CFCFCF"/>
</svg>
