<svg width="18" height="18" viewBox="0 0 18 18" fill="none" xmlns="http://www.w3.org/2000/svg">
<path d="M8.15971 1.24988C10.4315 1.24988 12.3748 3.31756 12.3748 5.77562C12.3748 7.29206 11.6767 8.6026 10.4969 9.38334C10.9561 9.55064 11.3889 9.78336 11.7951 10.0697L11.3766 11.1196C11.3277 11.237 11.2557 11.3423 11.1655 11.4286C11.0753 11.5149 10.9689 11.5802 10.8531 11.6205L8.20461 12.5835C7.42488 12.8667 7.42488 13.9187 8.20461 14.2029L10.8531 15.1671C10.9688 15.2072 11.0752 15.2724 11.1654 15.3585C11.2556 15.4446 11.3275 15.5496 11.3766 15.6668L11.9073 16.9999H1.12476C1.12476 14.0796 2.9159 10.6274 5.45717 9.48201L5.69089 9.38334C4.68561 8.6026 4.00895 7.29206 4.00895 5.77669C4.00895 3.31756 5.84398 1.25095 8.15971 1.25095V1.24988Z" fill="#929292"/>
<path d="M14.6568 9.53426L15.3646 11.3918C15.3963 11.4758 15.4454 11.5521 15.5087 11.6157C15.572 11.6793 15.648 11.7289 15.7318 11.761L17.5894 12.4678C17.71 12.5136 17.8139 12.595 17.8872 12.7012C17.9605 12.8074 17.9998 12.9333 17.9998 13.0624C17.9998 13.1914 17.9605 13.3174 17.8872 13.4236C17.8139 13.5298 17.71 13.6112 17.5894 13.657L15.7318 14.3647C15.6482 14.3967 15.5723 14.4459 15.509 14.5092C15.4458 14.5724 15.3966 14.6483 15.3646 14.7319L14.6568 16.5895C14.6111 16.7102 14.5297 16.814 14.4235 16.8873C14.3173 16.9606 14.1913 16.9999 14.0623 16.9999C13.9332 16.9999 13.8072 16.9606 13.701 16.8873C13.5948 16.814 13.5134 16.7102 13.4677 16.5895L12.7599 14.7319C12.728 14.6483 12.6788 14.5724 12.6155 14.5092C12.5522 14.4459 12.4763 14.3967 12.3927 14.3647L10.5351 13.657C10.4145 13.6112 10.3106 13.5298 10.2373 13.4236C10.164 13.3174 10.1248 13.1914 10.1248 13.0624C10.1248 12.9333 10.164 12.8074 10.2373 12.7012C10.3106 12.595 10.4145 12.5136 10.5351 12.4678L12.3927 11.76C12.4763 11.7281 12.5522 11.6789 12.6155 11.6156C12.6788 11.5523 12.728 11.4764 12.7599 11.3928L13.4677 9.53525C13.5134 9.4146 13.5948 9.31073 13.701 9.23743C13.8072 9.16413 13.9332 9.12488 14.0623 9.12488C14.1913 9.12488 14.3173 9.16413 14.4235 9.23743C14.5297 9.31073 14.6111 9.41362 14.6568 9.53426Z" fill="#CFCFCF"/>
</svg>
