<svg width="23" height="15" viewBox="0 0 23 15" fill="none" xmlns="http://www.w3.org/2000/svg">
<path fill-rule="evenodd" clip-rule="evenodd" d="M11.2285 0.00106877C11.2673 0.00253794 11.306 0.00585994 11.3447 0.00888127C11.3711 0.0109481 11.3975 0.0119581 11.4238 0.0147406C11.4721 0.0198304 11.5202 0.026753 11.5684 0.0342719C11.5925 0.038049 11.6166 0.041608 11.6406 0.0459906C11.6559 0.0487685 11.6713 0.0507788 11.6865 0.0538031C11.7143 0.0593162 11.742 0.0670317 11.7695 0.0733344C11.7965 0.0795339 11.8237 0.0849157 11.8506 0.0918891C11.8999 0.104686 11.9486 0.11954 11.9971 0.134858C12.014 0.14023 12.031 0.145772 12.0479 0.151459C12.0964 0.167771 12.1439 0.186367 12.1914 0.20517C12.2053 0.21067 12.2196 0.215077 12.2334 0.220795C12.2406 0.223792 12.2477 0.227508 12.2549 0.230561C12.2991 0.249265 12.3426 0.269289 12.3857 0.290131C12.4073 0.300529 12.429 0.310473 12.4502 0.321381C12.4946 0.344153 12.5379 0.36863 12.5811 0.393647C12.5982 0.403603 12.6159 0.412648 12.6328 0.422944C12.683 0.453459 12.7319 0.486087 12.7803 0.519623C12.7884 0.525236 12.7967 0.530532 12.8047 0.536225C12.911 0.611537 13.0116 0.694831 13.1074 0.784272C13.1175 0.793704 13.1277 0.803015 13.1377 0.812592C13.1519 0.826243 13.1677 0.838674 13.1816 0.852631C13.2092 0.880205 13.2344 0.909994 13.2607 0.938569C13.2692 0.947712 13.2778 0.956658 13.2861 0.965913C13.3236 1.00757 13.3596 1.05024 13.3945 1.09384C13.4051 1.10701 13.4164 1.11954 13.4268 1.1329C13.464 1.18117 13.4991 1.23094 13.5332 1.28134C13.5363 1.28598 13.5399 1.29036 13.543 1.29501C13.5442 1.2968 13.5457 1.29909 13.5469 1.30087C13.6184 1.40842 13.6817 1.52086 13.7383 1.63681C13.7467 1.65409 13.7556 1.67114 13.7637 1.68857C13.7875 1.73991 13.8093 1.79211 13.8301 1.84482C13.8341 1.855 13.8389 1.86487 13.8428 1.87509C13.8642 1.93123 13.8824 1.98849 13.9004 2.04599C13.9042 2.05808 13.9085 2.06999 13.9121 2.08212C13.9381 2.16921 13.9626 2.25711 13.9805 2.34677C14.0015 2.45255 14.0133 2.55937 14.0225 2.66611C14.0241 2.68563 14.0261 2.70512 14.0273 2.7247C14.0306 2.77421 14.0325 2.82362 14.0332 2.87314C14.0334 2.88776 14.0352 2.90245 14.0352 2.91708C14.0352 4.30665 14.5868 5.63959 15.5693 6.62216C16.5519 7.60472 17.8848 8.15634 19.2744 8.15634C19.6577 8.1561 20.0375 8.23151 20.3916 8.37802C20.7457 8.52454 21.0669 8.73995 21.3379 9.01083C21.6089 9.28175 21.824 9.60309 21.9707 9.95712C22.1174 10.3112 22.1934 10.6911 22.1934 11.0743C22.1989 11.4608 22.1274 11.8445 21.9834 12.2032C21.8393 12.5621 21.625 12.8897 21.3535 13.1651C21.0821 13.4405 20.758 13.6594 20.4014 13.8087C20.0447 13.9578 19.662 14.0343 19.2754 14.0343C18.8886 14.0343 18.5052 13.958 18.1484 13.8087C17.7919 13.6594 17.4686 13.4404 17.1973 13.1651C16.9258 12.8897 16.7115 12.5621 16.5674 12.2032C16.4234 11.8445 16.3519 11.4608 16.3574 11.0743C16.3574 9.68482 15.8057 8.35181 14.8232 7.36923C13.9021 6.44807 12.6729 5.90518 11.3779 5.84091L11.1182 5.83408L10.8584 5.84091C9.56335 5.90513 8.3343 6.44802 7.41309 7.36923C6.43061 8.35181 5.87891 9.6848 5.87891 11.0743C5.87879 11.8481 5.57058 12.5897 5.02344 13.1368C4.47629 13.684 3.7347 13.9922 2.96094 13.9923C2.57429 13.9979 2.18991 13.9264 1.83105 13.7823C1.4722 13.6382 1.14556 13.4239 0.870117 13.1524C0.594644 12.8809 0.375873 12.5571 0.226562 12.2003C0.0773213 11.8436 1.9698e-05 11.461 0 11.0743C0 10.6875 0.0772516 10.3042 0.226562 9.94736C0.37587 9.59072 0.594745 9.26758 0.870117 8.99619C1.14559 8.72469 1.47213 8.51041 1.83105 8.3663C2.18994 8.22223 2.57425 8.15072 2.96094 8.15634C4.35021 8.15623 5.68258 7.60442 6.66504 6.62216C7.64759 5.63961 8.20014 4.30661 8.2002 2.91708V2.91611C8.2002 2.84774 8.20221 2.77939 8.20703 2.71103C8.20779 2.70027 8.20908 2.68955 8.20996 2.6788C8.21465 2.62142 8.22041 2.56411 8.22852 2.50693C8.23143 2.48636 8.23493 2.46589 8.23828 2.4454C8.24361 2.41285 8.24844 2.38018 8.25488 2.34775C8.258 2.33204 8.26225 2.31651 8.26562 2.30087C8.27084 2.27671 8.2764 2.25262 8.28223 2.22861C8.29368 2.18141 8.30558 2.13442 8.31934 2.08798C8.3241 2.0719 8.32992 2.05613 8.33496 2.04013C8.3738 1.91684 8.42003 1.7964 8.47461 1.67978C8.47967 1.66897 8.48504 1.65831 8.49023 1.64755C8.51609 1.59403 8.5432 1.54118 8.57227 1.48935C8.57775 1.47956 8.58327 1.46978 8.58887 1.46005C8.61894 1.40784 8.65129 1.35703 8.68457 1.30673C8.68691 1.30319 8.68905 1.29952 8.69141 1.29599C8.69705 1.28755 8.70326 1.27898 8.70898 1.2706C8.73911 1.22653 8.77018 1.18315 8.80273 1.14072C8.81769 1.12121 8.83321 1.10219 8.84863 1.0831C8.87795 1.04682 8.90737 1.01059 8.93848 0.975678C8.95411 0.958122 8.97029 0.941079 8.98633 0.92392C9.00833 0.900398 9.02991 0.876442 9.05273 0.853608C9.06725 0.839085 9.08286 0.82483 9.09766 0.810639C9.1053 0.803301 9.11337 0.796407 9.12109 0.789155C9.16612 0.746913 9.21233 0.706246 9.25977 0.667084C9.26796 0.660315 9.27591 0.653256 9.28418 0.646577C9.32832 0.61094 9.37291 0.575992 9.41895 0.543061C9.43494 0.531607 9.45154 0.52099 9.46777 0.509858C9.51145 0.479927 9.55539 0.450425 9.60059 0.422944C9.61751 0.412643 9.6352 0.403608 9.65234 0.393647C9.69546 0.368619 9.73887 0.344166 9.7832 0.321381C9.79032 0.317719 9.79754 0.314244 9.80469 0.310639L9.93359 0.249116C9.9484 0.242547 9.9636 0.236884 9.97852 0.230561C9.98603 0.227373 9.99343 0.223922 10.001 0.220795C10.0145 0.215203 10.0284 0.210554 10.042 0.20517C10.0723 0.193167 10.1021 0.180031 10.1328 0.169038L10.2031 0.1456C10.2232 0.138976 10.2435 0.133226 10.2637 0.127045C10.2977 0.116629 10.3317 0.105951 10.3662 0.0967719C10.4099 0.0851229 10.4539 0.0751149 10.498 0.0655219C10.5145 0.0619444 10.5313 0.058075 10.5479 0.0547797C10.5566 0.0530358 10.5654 0.0515591 10.5742 0.0498969C10.6212 0.0409808 10.6685 0.0340274 10.7158 0.027436C10.7373 0.0244517 10.7587 0.0211478 10.7803 0.0186469C10.8293 0.0129312 10.8785 0.00917356 10.9277 0.00595158C10.9525 0.00434313 10.9772 0.00204449 11.002 0.00106877C11.0403 -0.00046054 11.0787 0.000104242 11.1172 9.22092e-05C11.1543 9.73365e-05 11.1914 -0.000352563 11.2285 0.00106877ZM11.1182 8.15732C12.7293 8.15744 14.0352 9.46409 14.0352 11.0753C14.0351 12.6865 12.7293 13.9922 11.1182 13.9923C9.5069 13.9923 8.20021 12.6865 8.2002 11.0753C8.2002 9.46401 9.50689 8.15732 11.1182 8.15732Z" fill="url(#paint0_linear_108_323)"/>
<defs>
<linearGradient id="paint0_linear_108_323" x1="0" y1="7.01714" x2="22.1937" y2="7.01714" gradientUnits="userSpaceOnUse">
<stop offset="0.0288461" stop-color="#0051FF"/>
<stop offset="0.480769" stop-color="#00A2FF"/>
<stop offset="1" stop-color="#00EAFF"/>
</linearGradient>
</defs>
</svg>
