<svg width="15" height="17" viewBox="0 0 15 17" fill="none" xmlns="http://www.w3.org/2000/svg">
<path d="M14.7507 0.318177C14.7523 0.275898 14.7449 0.233764 14.7292 0.194493C14.7135 0.155222 14.6897 0.119687 14.6593 0.0901806C14.629 0.0606743 14.5929 0.0378524 14.5532 0.0231874C14.5135 0.00852244 14.4712 0.00234028 14.4289 0.00503984C14.2835 0.00503984 14.138 0.0112039 13.9925 0.0112039C11.192 0.0112039 8.39161 0.0112039 5.59146 0.0112039C3.84086 0.0112039 2.09025 0.0327783 0.339641 0.000108559C0.127596 -0.00420632 0.00678029 0.120309 0.00554747 0.337285C0.00308183 0.773704 0.00123282 1.21033 0 1.64716C0 1.9603 0 1.95536 0.308205 1.95536H5.89104H6.07966C6.07678 1.97497 6.07246 1.99434 6.06672 2.01331C5.86453 2.56191 5.65865 3.10929 5.46202 3.66036C5.45353 3.69956 5.43049 3.73409 5.39754 3.75697C5.36459 3.77986 5.32419 3.78938 5.28449 3.78364C3.99619 3.7898 2.70851 3.79165 1.42144 3.77747C1.1342 3.77747 0.997969 3.90815 0.997969 4.19479C0.997969 7.34341 0.993653 15.3161 0.994269 16.1532C0.994269 16.4102 1.14406 16.5557 1.39432 16.5557C2.42167 16.5557 3.44902 16.5557 4.47638 16.5557L13.3274 16.5643C13.5697 16.5643 13.7207 16.4194 13.7262 16.1698C13.7306 15.9799 13.7262 15.7907 13.7262 15.6009C13.7303 12.1391 13.7345 8.67753 13.7386 5.21618C13.7386 4.87654 13.7429 4.53813 13.7386 4.19725C13.7386 3.93651 13.5691 3.77871 13.3108 3.78734C13.1961 3.79104 13.0815 3.79412 12.9668 3.79412L7.55596 3.79843C7.40679 3.79843 7.40741 3.79843 7.46412 3.66159C7.68479 3.12778 7.88143 2.58595 8.0682 2.03981C8.09101 1.97386 8.11567 1.9529 8.18532 1.9529C9.46458 1.95783 10.7436 1.96091 12.0225 1.96214C12.8998 1.96214 13.7774 1.96523 14.6552 1.97139C14.7168 1.97139 14.7519 1.96646 14.7507 1.88879C14.7519 1.36731 14.755 0.842742 14.7507 0.318177ZM11.7919 14.5203C11.7919 14.6158 11.7753 14.6466 11.6687 14.6436C8.7892 14.6353 5.90974 14.6306 3.03028 14.6294C2.93597 14.6294 2.92487 14.5973 2.92487 14.5166C2.92775 13.4362 2.92775 12.3559 2.92487 11.2755C2.92487 11.1756 2.94829 11.1522 3.04815 11.1522C4.48644 11.1559 5.92474 11.1559 7.36303 11.1522C8.80502 11.1522 10.2468 11.1522 11.6884 11.1522C11.7697 11.1522 11.7895 11.167 11.7895 11.2515C11.7874 12.3425 11.7884 13.4321 11.7926 14.5203H11.7919ZM11.6748 5.73335C11.7365 5.73335 11.7876 5.71609 11.787 5.82026C11.7817 6.91747 11.7802 8.01509 11.7827 9.11313C11.7827 9.20127 11.7685 9.23148 11.6705 9.23086C8.80913 9.22593 5.94795 9.22449 3.08698 9.22655C2.95816 9.22655 2.92918 9.19634 2.93042 9.06813C2.93658 7.99681 2.93658 6.92569 2.93042 5.85478C2.93042 5.75184 2.95507 5.7315 3.05062 5.7315C4.48891 5.73479 5.9272 5.73479 7.36549 5.7315L11.6748 5.73335Z" fill="black"/>
</svg>
