<svg width="60" height="18" viewBox="0 0 60 18" fill="none" xmlns="http://www.w3.org/2000/svg">
<path d="M41.0047 0.74469C41.0062 0.702412 40.9989 0.660277 40.9831 0.621007C40.9674 0.581736 40.9436 0.546201 40.9133 0.516694C40.883 0.487188 40.8468 0.464366 40.8071 0.449701C40.7674 0.435036 40.7251 0.428854 40.6829 0.431554C40.5374 0.431554 40.392 0.437718 40.2465 0.437718C37.4459 0.437718 34.6456 0.437718 31.8454 0.437718C30.0948 0.437718 28.3442 0.459292 26.5936 0.426622C26.3816 0.422307 26.2607 0.546822 26.2595 0.763799C26.257 1.20022 26.2552 1.63684 26.254 2.07367C26.254 2.38681 26.254 2.38188 26.5622 2.38188H32.145H32.3336C32.3307 2.40148 32.3264 2.42085 32.3207 2.43982C32.1185 2.98843 31.9126 3.5358 31.716 4.08687C31.7075 4.12608 31.6844 4.16061 31.6515 4.18349C31.6186 4.20637 31.5781 4.2159 31.5384 4.21015C30.2501 4.21632 28.9625 4.21817 27.6754 4.20399C27.3882 4.20399 27.2519 4.33467 27.2519 4.6213C27.2519 7.76993 27.2476 15.7426 27.2482 16.5797C27.2482 16.8367 27.398 16.9822 27.6483 16.9822C28.6756 16.9822 29.703 16.9822 30.7303 16.9822L39.5814 16.9908C39.8236 16.9908 39.9746 16.846 39.9802 16.5963C39.9845 16.4065 39.9802 16.2172 39.9802 16.0274C39.9843 12.5656 39.9884 9.10404 39.9925 5.64269C39.9925 5.30305 39.9968 4.96464 39.9925 4.62376C39.9925 4.36302 39.823 4.20522 39.5647 4.21385C39.4501 4.21755 39.3354 4.22063 39.2208 4.22063L33.8099 4.22495C33.6607 4.22495 33.6614 4.22495 33.7181 4.0881C33.9388 3.55429 34.1354 3.01247 34.3222 2.46633C34.345 2.40037 34.3696 2.37941 34.4393 2.37941C35.7185 2.38434 36.9976 2.38743 38.2764 2.38866C39.1538 2.38866 40.0314 2.39174 40.9091 2.3979C40.9708 2.3979 41.0059 2.39297 41.0047 2.31531C41.0059 1.79382 41.009 1.26926 41.0047 0.74469ZM38.0459 14.9468C38.0459 15.0423 38.0293 15.0732 37.9226 15.0701C35.0432 15.0619 32.1637 15.0571 29.2842 15.0559C29.1899 15.0559 29.1788 15.0238 29.1788 14.9431C29.1817 13.8627 29.1817 12.7824 29.1788 11.702C29.1788 11.6022 29.2022 11.5787 29.3021 11.5787C30.7404 11.5824 32.1787 11.5824 33.617 11.5787C35.059 11.5787 36.5008 11.5787 37.9423 11.5787C38.0237 11.5787 38.0434 11.5935 38.0434 11.678C38.0414 12.769 38.0424 13.8586 38.0465 14.9468H38.0459ZM37.9288 6.15986C37.9904 6.15986 38.0416 6.1426 38.041 6.24677C38.0356 7.34399 38.0342 8.44161 38.0366 9.53964C38.0366 9.62779 38.0225 9.65799 37.9245 9.65738C35.0631 9.65244 32.2019 9.65101 29.3409 9.65306C29.2121 9.65306 29.1831 9.62286 29.1844 9.49464C29.1905 8.42332 29.1905 7.3522 29.1844 6.28129C29.1844 6.17835 29.209 6.15801 29.3046 6.15801C30.7429 6.1613 32.1812 6.1613 33.6194 6.15801L37.9288 6.15986Z" fill="black"/>
<path d="M49.7343 8.44486C49.7343 7.70804 49.7343 6.97164 49.7343 6.23564C49.7343 4.6527 49.7343 3.07058 49.7343 1.48928C49.7343 1.25566 49.5919 1.10957 49.3583 1.10526C49.2529 1.10526 49.1469 1.10895 49.0409 1.10895L44.9664 1.11265C44.7389 1.11265 44.6237 1.21066 44.5929 1.43503C44.5875 1.48313 44.5852 1.53151 44.5861 1.57989C44.5861 4.68003 44.585 7.77975 44.583 10.8791C44.583 12.3695 44.583 13.86 44.583 15.3505C44.583 15.6526 44.7309 15.7962 45.0293 15.7949C45.4657 15.7949 45.9021 15.7949 46.3385 15.7949C47.3396 15.7949 48.3406 15.7929 49.3417 15.7888C49.3946 15.7914 49.4474 15.7831 49.497 15.7644C49.5465 15.7457 49.5916 15.7169 49.6295 15.6799C49.6674 15.643 49.6973 15.5986 49.7172 15.5495C49.7372 15.5005 49.7468 15.4478 49.7454 15.3949V8.44486H49.7343ZM47.932 9.20304C47.927 9.72761 47.9165 12.986 47.9202 13.7398C47.9202 13.8329 47.9079 13.8662 47.8007 13.8631C47.3642 13.8551 46.9278 13.8563 46.4908 13.8631C46.3885 13.8631 46.3675 13.8329 46.3675 13.7367C46.3675 12.2204 46.3638 10.7036 46.3564 9.1864C46.3564 9.09086 46.3965 9.09086 46.4661 9.09086C46.9247 9.09086 47.3833 9.09394 47.842 9.08716C47.9437 9.08778 47.9326 9.14079 47.932 9.20428V9.20304ZM47.9264 7.0567C47.9264 7.12204 47.9079 7.13869 47.8438 7.13807C47.3815 7.13375 46.9192 7.13006 46.4556 7.13314C46.3527 7.13314 46.3694 7.07581 46.3694 7.01479C46.3694 5.78525 46.3694 4.55551 46.3694 3.32557C46.3694 3.01736 46.3693 3.01736 46.6726 3.01736C47.061 3.01736 47.4487 3.01736 47.8364 3.01243C47.9276 3.01243 47.9338 3.0414 47.9332 3.11537C47.9301 3.77493 47.9239 6.40146 47.9264 7.05794V7.0567Z" fill="black"/>
<path d="M56.6198 6.39958C57.1209 7.00489 57.6128 7.5985 58.1454 8.15758C58.2458 8.26237 58.3463 8.36778 58.4474 8.47257C58.4961 8.52373 58.5522 8.57243 58.5165 8.65749C58.4807 8.74256 58.408 8.7518 58.3315 8.7518L57.2454 8.75303C56.9631 8.75303 56.6808 8.74934 56.3985 8.75673C56.3412 8.76033 56.2838 8.75113 56.2305 8.7298C56.1772 8.70848 56.1293 8.67557 56.0903 8.63345C55.644 8.16929 55.2113 7.69281 54.8574 7.15037C54.8075 7.0727 54.7779 7.0616 54.6848 7.10167C54.2386 7.29029 53.7867 7.46597 53.3349 7.64041C52.4775 7.97204 51.6182 8.29874 50.7595 8.62667C50.5456 8.70865 50.4593 8.65071 50.4612 8.42572C50.4649 7.95355 50.4711 7.482 50.468 7.00798C50.4624 6.9422 50.4791 6.87646 50.5153 6.82127C50.5515 6.76607 50.6052 6.7246 50.6677 6.70347C51.199 6.46862 51.752 6.29109 52.2907 6.07535C52.7604 5.88672 53.2307 5.69995 53.7084 5.53722C53.7732 5.51503 53.7658 5.48852 53.738 5.44291C53.3506 4.80109 53.0007 4.13734 52.6901 3.45498C52.6823 3.4279 52.6644 3.40485 52.6401 3.39062C52.6158 3.37639 52.5869 3.37207 52.5595 3.37855C51.8722 3.4519 51.1787 3.51354 50.4852 3.58443C50.3977 3.59306 50.3786 3.56409 50.3792 3.48519C50.3854 2.99206 50.3872 2.49893 50.394 2.0058C50.394 1.75924 50.4624 1.6976 50.709 1.6828C51.0788 1.6563 51.4487 1.62486 51.8185 1.60144C51.903 1.5965 51.8993 1.57123 51.8728 1.50651C51.7131 1.12064 51.5572 0.733529 51.4006 0.346423C51.3051 0.11157 51.3778 0 51.6324 0C52.0869 0 52.5401 0 52.9922 0C53.1833 0 53.2696 0.0616411 53.3392 0.246564C53.4781 0.612712 53.616 0.979271 53.7528 1.34624C53.7781 1.41405 53.8021 1.45843 53.8921 1.44672C54.7798 1.33206 55.6674 1.28707 56.555 1.21433C57.1961 1.16193 57.8378 1.11201 58.4795 1.05961C58.6404 1.04667 58.6367 1.04543 58.6367 1.20508C58.6367 1.72965 58.6367 2.25298 58.644 2.7794C58.644 2.88172 58.6163 2.91809 58.5165 2.9261C57.7385 2.99083 56.9619 3.06048 56.184 3.12459C55.6964 3.16465 55.2082 3.19917 54.7206 3.23369C54.6534 3.23862 54.646 3.25773 54.6768 3.31321C54.9536 3.81435 55.2242 4.31857 55.5299 4.80307C55.5346 4.81507 55.5418 4.82588 55.5511 4.83471C55.5605 4.84355 55.5717 4.85019 55.5839 4.85415C55.5961 4.85811 55.6091 4.85928 55.6218 4.85759C55.6346 4.8559 55.6468 4.85138 55.6575 4.84437C56.537 4.49713 57.4176 4.15276 58.2995 3.81127C58.3525 3.78923 58.4079 3.7737 58.4647 3.76504C58.4889 3.76094 58.5137 3.76234 58.5373 3.76913C58.5609 3.77591 58.5827 3.78791 58.601 3.80425C58.6194 3.82058 58.6338 3.84082 58.6433 3.86348C58.6528 3.88614 58.657 3.91064 58.6558 3.93517C58.6558 4.4246 58.6607 4.91403 58.6521 5.40346C58.6521 5.57605 58.5158 5.6679 58.3734 5.72522C57.8107 5.95083 57.2466 6.17459 56.6734 6.37431C56.6551 6.38175 56.6372 6.39019 56.6198 6.39958Z" fill="black"/>
<path d="M58.6162 9.39969C58.9133 9.39969 59.0292 9.50941 59.0292 9.8022C59.0292 10.2694 59.0249 10.7373 59.0292 11.2045C59.0292 11.3025 58.9965 11.3192 58.9059 11.3186C58.337 11.3143 57.768 11.3186 57.1997 11.3136C57.1134 11.3136 57.0795 11.3223 57.0795 11.4227C57.0865 12.6346 57.0889 13.8469 57.0869 15.0596C57.0869 15.16 57.1115 15.1829 57.2102 15.1829C57.8315 15.1736 58.4535 15.173 59.0748 15.1662C59.1364 15.1662 59.1512 15.1804 59.1512 15.2383C59.1482 15.7278 59.1512 16.2172 59.1445 16.7066C59.1446 16.7544 59.135 16.8016 59.1162 16.8455C59.0975 16.8894 59.0699 16.929 59.0353 16.9618C59.0006 16.9947 58.9596 17.0201 58.9148 17.0365C58.87 17.053 58.8223 17.0601 58.7746 17.0574C57.7062 17.0611 56.6392 17.0625 55.5736 17.0617C55.3659 17.0617 55.2376 16.9162 55.2376 16.6869C55.2376 15.9115 55.2376 15.1354 55.2376 14.3593C55.2376 13.3805 55.2376 12.4016 55.2376 11.4227C55.2376 11.3328 55.2216 11.3093 55.123 11.3118C54.6958 11.3217 54.268 11.3192 53.8402 11.3192C53.7786 11.3192 53.7373 11.3192 53.7207 11.3993C53.4624 12.6747 53.1042 13.9266 52.743 15.1724C52.5976 15.676 52.4385 16.1759 52.2783 16.6746C52.1698 17.0124 52.0933 17.0611 51.7438 17.0617H50.5005C50.2577 17.0617 50.1874 16.955 50.2718 16.7294C50.6072 15.8356 51.6175 12.2857 51.8455 11.4234C51.8659 11.3451 51.8702 11.3099 51.7648 11.3124C51.2883 11.3217 50.8124 11.3167 50.3359 11.3241C50.2367 11.3241 50.2219 11.2896 50.2231 11.2008C50.2275 10.7731 50.2268 10.3453 50.2275 9.91809C50.2281 9.49092 50.3193 9.40277 50.7378 9.40277C52.0465 9.40462 57.2934 9.39969 58.6162 9.39969Z" fill="black"/>
<path fill-rule="evenodd" clip-rule="evenodd" d="M11.2285 1.53644C11.2673 1.53791 11.306 1.54123 11.3447 1.54425C11.3711 1.54632 11.3975 1.54733 11.4238 1.55011C11.4721 1.5552 11.5202 1.56212 11.5684 1.56964C11.5925 1.57342 11.6166 1.57698 11.6406 1.58136C11.6559 1.58414 11.6713 1.58615 11.6865 1.58917C11.7143 1.59469 11.742 1.6024 11.7695 1.6087C11.7965 1.6149 11.8237 1.62029 11.8506 1.62726C11.8999 1.64006 11.9486 1.65491 11.9971 1.67023C12.014 1.6756 12.031 1.68114 12.0479 1.68683C12.0964 1.70314 12.1439 1.72174 12.1914 1.74054C12.2053 1.74604 12.2196 1.75045 12.2334 1.75617C12.2406 1.75916 12.2477 1.76288 12.2549 1.76593C12.2991 1.78463 12.3426 1.80466 12.3857 1.8255C12.4073 1.8359 12.429 1.84584 12.4502 1.85675C12.4946 1.87952 12.5379 1.904 12.5811 1.92902C12.5982 1.93897 12.6159 1.94802 12.6328 1.95831C12.683 1.98883 12.7319 2.02146 12.7803 2.05499C12.7884 2.06061 12.7967 2.0659 12.8047 2.07159C12.911 2.14691 13.0116 2.2302 13.1074 2.31964C13.1175 2.32907 13.1277 2.33838 13.1377 2.34796C13.1519 2.36161 13.1677 2.37404 13.1816 2.388C13.2092 2.41558 13.2344 2.44536 13.2607 2.47394C13.2692 2.48308 13.2778 2.49203 13.2861 2.50128C13.3236 2.54294 13.3596 2.58561 13.3945 2.62921C13.4051 2.64238 13.4164 2.65491 13.4268 2.66827C13.464 2.71654 13.4991 2.76631 13.5332 2.81671C13.5363 2.82135 13.5399 2.82573 13.543 2.83038C13.5442 2.83217 13.5457 2.83445 13.5469 2.83624C13.6184 2.94379 13.6817 3.05623 13.7383 3.17218C13.7467 3.18946 13.7556 3.20651 13.7637 3.22394C13.7875 3.27528 13.8093 3.32748 13.8301 3.38019C13.8341 3.39037 13.8389 3.40024 13.8428 3.41046C13.8642 3.4666 13.8824 3.52386 13.9004 3.58136C13.9042 3.59345 13.9085 3.60536 13.9121 3.61749C13.9381 3.70458 13.9626 3.79248 13.9805 3.88214C14.0015 3.98792 14.0133 4.09474 14.0225 4.20148C14.0241 4.221 14.0261 4.24049 14.0273 4.26007C14.0306 4.30958 14.0325 4.35899 14.0332 4.40851C14.0334 4.42313 14.0352 4.43782 14.0352 4.45245C14.0352 5.84202 14.5868 7.17496 15.5693 8.15753C16.5519 9.14009 17.8848 9.69171 19.2744 9.69171C19.6577 9.69147 20.0375 9.76688 20.3916 9.91339C20.7457 10.0599 21.0669 10.2753 21.3379 10.5462C21.6089 10.8171 21.824 11.1385 21.9707 11.4925C22.1174 11.8466 22.1934 12.2264 22.1934 12.6097C22.1989 12.9962 22.1274 13.3799 21.9834 13.7386C21.8393 14.0975 21.625 14.425 21.3535 14.7005C21.0821 14.9758 20.758 15.1948 20.4014 15.3441C20.0447 15.4932 19.662 15.5696 19.2754 15.5696C18.8886 15.5696 18.5052 15.4934 18.1484 15.3441C17.7919 15.1948 17.4686 14.9758 17.1973 14.7005C16.9258 14.425 16.7115 14.0975 16.5674 13.7386C16.4234 13.3799 16.3519 12.9962 16.3574 12.6097C16.3574 11.2202 15.8057 9.88718 14.8232 8.9046C13.9021 7.98344 12.6729 7.44055 11.3779 7.37628L11.1182 7.36945L10.8584 7.37628C9.56335 7.4405 8.3343 7.98339 7.41309 8.9046C6.43061 9.88718 5.87891 11.2202 5.87891 12.6097C5.87879 13.3834 5.57058 14.125 5.02344 14.6722C4.47629 15.2193 3.7347 15.5275 2.96094 15.5276C2.57429 15.5333 2.18991 15.4617 1.83105 15.3177C1.4722 15.1736 1.14556 14.9592 0.870117 14.6878C0.594644 14.4163 0.375873 14.0925 0.226562 13.7357C0.0773213 13.379 1.9698e-05 12.9963 0 12.6097C0 12.2229 0.0772516 11.8395 0.226562 11.4827C0.37587 11.1261 0.594745 10.803 0.870117 10.5316C1.14559 10.2601 1.47213 10.0458 1.83105 9.90167C2.18994 9.7576 2.57425 9.68609 2.96094 9.69171C4.35021 9.6916 5.68258 9.13979 6.66504 8.15753C7.64759 7.17498 8.20014 5.84198 8.2002 4.45245V4.45148C8.2002 4.38311 8.20221 4.31476 8.20703 4.2464C8.20779 4.23564 8.20908 4.22492 8.20996 4.21417C8.21465 4.15679 8.22041 4.09948 8.22852 4.0423C8.23143 4.02173 8.23493 4.00126 8.23828 3.98077C8.24361 3.94822 8.24844 3.91555 8.25488 3.88312C8.258 3.86741 8.26225 3.85188 8.26562 3.83624C8.27084 3.81208 8.2764 3.78799 8.28223 3.76398C8.29368 3.71678 8.30558 3.66979 8.31934 3.62335C8.3241 3.60727 8.32992 3.5915 8.33496 3.5755C8.3738 3.45221 8.42003 3.33177 8.47461 3.21515C8.47967 3.20434 8.48504 3.19368 8.49023 3.18292C8.51609 3.1294 8.5432 3.07655 8.57227 3.02472C8.57775 3.01493 8.58327 3.00515 8.58887 2.99542C8.61894 2.94321 8.65129 2.8924 8.68457 2.8421C8.68691 2.83856 8.68905 2.83489 8.69141 2.83136C8.69705 2.82292 8.70326 2.81435 8.70898 2.80597C8.73911 2.7619 8.77018 2.71851 8.80273 2.67609C8.81769 2.65658 8.83321 2.63756 8.84863 2.61847C8.87795 2.58219 8.90737 2.54596 8.93848 2.51105C8.95411 2.49349 8.97029 2.47645 8.98633 2.45929C9.00833 2.43577 9.02991 2.41181 9.05273 2.38898C9.06725 2.37446 9.08286 2.3602 9.09766 2.34601C9.1053 2.33867 9.11337 2.33178 9.12109 2.32452C9.16612 2.28228 9.21233 2.24162 9.25977 2.20245C9.26796 2.19568 9.27591 2.18863 9.28418 2.18195C9.32832 2.14631 9.37291 2.11136 9.41895 2.07843C9.43494 2.06698 9.45154 2.05636 9.46777 2.04523C9.51145 2.0153 9.55539 1.9858 9.60059 1.95831C9.61751 1.94801 9.6352 1.93898 9.65234 1.92902C9.69546 1.90399 9.73887 1.87954 9.7832 1.85675C9.79032 1.85309 9.79754 1.84961 9.80469 1.84601L9.93359 1.78449C9.9484 1.77792 9.9636 1.77225 9.97852 1.76593C9.98603 1.76274 9.99343 1.75929 10.001 1.75617C10.0145 1.75057 10.0284 1.74592 10.042 1.74054C10.0723 1.72854 10.1021 1.7154 10.1328 1.70441L10.2031 1.68097C10.2232 1.67435 10.2435 1.6686 10.2637 1.66242C10.2977 1.652 10.3317 1.64132 10.3662 1.63214C10.4099 1.62049 10.4539 1.61048 10.498 1.60089C10.5145 1.59731 10.5313 1.59344 10.5479 1.59015C10.5566 1.58841 10.5654 1.58693 10.5742 1.58527C10.6212 1.57635 10.6685 1.5694 10.7158 1.56281C10.7373 1.55982 10.7587 1.55652 10.7803 1.55402C10.8293 1.5483 10.8785 1.54454 10.9277 1.54132C10.9525 1.53971 10.9772 1.53741 11.002 1.53644C11.0403 1.53491 11.0787 1.53547 11.1172 1.53546C11.1543 1.53547 11.1914 1.53502 11.2285 1.53644ZM11.1182 9.69269C12.7293 9.69281 14.0352 10.9995 14.0352 12.6107C14.0351 14.2218 12.7293 15.5275 11.1182 15.5276C9.5069 15.5276 8.20021 14.2219 8.2002 12.6107C8.2002 10.9994 9.50689 9.69269 11.1182 9.69269Z" fill="url(#paint0_linear_108_318)"/>
<defs>
<linearGradient id="paint0_linear_108_318" x1="0" y1="8.55251" x2="22.1937" y2="8.55251" gradientUnits="userSpaceOnUse">
<stop offset="0.0288461" stop-color="#0051FF"/>
<stop offset="0.480769" stop-color="#00A2FF"/>
<stop offset="1" stop-color="#00EAFF"/>
</linearGradient>
</defs>
</svg>
