<svg width="16" height="16" viewBox="0 0 16 16" fill="none" xmlns="http://www.w3.org/2000/svg">
<path d="M6.39239 1.49768H1.71036C1.32255 1.49768 1.00806 1.81232 1.00806 2.20012V6.88168C1.00806 7.26949 1.32255 7.58413 1.71036 7.58413H6.39239C6.77973 7.58413 7.09466 7.26949 7.09466 6.8817V2.20012C7.09466 1.81231 6.77972 1.49768 6.39239 1.49768ZM13.5902 8.69565H8.90798C8.52017 8.69565 8.20586 9.00996 8.20586 9.39776V14.0796C8.20586 14.4675 8.52017 14.7818 8.908 14.7818H13.5902C13.9777 14.7818 14.2923 14.4675 14.2923 14.0796V9.39777C14.2923 9.00996 13.9777 8.69565 13.5902 8.69565ZM6.39239 8.69565H1.71036C1.32255 8.69565 1.00806 9.00996 1.00806 9.39776V14.0796C1.00806 14.4675 1.32255 14.7818 1.71036 14.7818H6.39239C6.77973 14.7818 7.09466 14.4675 7.09466 14.0796V9.39777C7.09466 9.00996 6.77972 8.69565 6.39239 8.69565Z" fill="#929292"/>
<path d="M10.8652 1.29259L14.649 3.29013C14.9632 3.45557 15.0831 3.84371 14.9175 4.1574L12.9203 7.94134C12.7548 8.25442 12.3661 8.37451 12.0527 8.20907L8.26874 6.21184C7.95521 6.04577 7.83528 5.65828 8.0004 5.34457L9.99824 1.55999C10.164 1.24724 10.5521 1.12715 10.8652 1.29259Z" fill="#CFCFCF"/>
</svg>
