<svg width="16" height="16" viewBox="0 0 16 16" fill="none" xmlns="http://www.w3.org/2000/svg">
<path d="M8.84508 8.84508V13.1549C8.84508 13.662 8.50706 14 8 14C7.49294 14 7.15495 13.662 7.15495 13.1549V8.84508H2.84508C2.33804 8.84508 2 8.50706 2 8C2 7.74649 2.08451 7.57747 2.25353 7.40845C2.42255 7.23943 2.59157 7.15495 2.84508 7.15495H7.15495V2.84508C7.15495 2.59155 7.23946 2.42253 7.40845 2.25353C7.57747 2.08451 7.74649 2 8 2C8.50706 2 8.8451 2.33804 8.8451 2.8451V7.15492H13.1549C13.662 7.15492 14 7.49294 14 7.99998C14 8.50701 13.662 8.84508 13.1549 8.84508H8.84508Z" fill="white"/>
</svg>
