<svg width="70" height="16" viewBox="0 0 70 16" fill="none" xmlns="http://www.w3.org/2000/svg">
<path opacity="0.16" fill-rule="evenodd" clip-rule="evenodd" d="M24.6744 13.8481C23.2776 15.2827 21.3677 16 18.9447 16C16.6315 16 14.7816 15.2724 13.3951 13.8172C12.0086 12.3621 11.3153 10.423 11.3153 8C11.3153 5.54955 12.012 3.6036 13.4054 2.16216C14.7988 0.720721 16.6795 0 19.0476 0C21.402 0 23.2776 0.720721 24.6744 2.16216C26.0712 3.6036 26.7696 5.53925 26.7696 7.96911C26.7696 10.4539 26.0712 12.4136 24.6744 13.8481ZM10.0386 13.4569V15.619H0V0.380952H3.17117V13.4569H10.0386ZM18.9858 13.8996C17.6954 13.8996 16.6555 13.3591 15.8662 12.278C15.0768 11.1969 14.6821 9.76748 14.6821 7.9897C14.6821 6.1982 15.0785 4.76705 15.8713 3.69627C16.6641 2.62548 17.7229 2.09009 19.0476 2.09009C20.3586 2.09009 21.4123 2.62548 22.2085 3.69627C23.0047 4.76705 23.4028 6.1879 23.4028 7.95882C23.4028 9.78464 23.0064 11.2312 22.2136 12.2986C21.4208 13.3659 20.3449 13.8996 18.9858 13.8996ZM41.7915 15.2587C39.8833 15.7529 38.236 16 36.8494 16C34.2205 16 32.2008 15.3085 30.7902 13.9254C29.3797 12.5423 28.6744 10.5603 28.6744 7.97941C28.6744 5.41913 29.3797 3.44916 30.7902 2.0695C32.2008 0.689833 34.2102 0 36.8185 0C38.4865 0 40.1407 0.195624 41.7812 0.586873V3.06821C39.8799 2.41613 38.3183 2.09009 37.0965 2.09009C35.4835 2.09009 34.2377 2.60489 33.3591 3.63449C32.4805 4.66409 32.0412 6.12269 32.0412 8.0103C32.0412 9.83612 32.5114 11.269 33.4517 12.3089C34.3921 13.3488 35.6894 13.8687 37.3436 13.8687C37.7074 13.8687 38.133 13.8172 38.6203 13.7143V8.70013H41.7915V15.2587ZM52.9429 0.380952H49.7717V15.619H52.9429V0.380952ZM59.3058 5.20978V15.619H56.7627V0.380952H59.5529L66.616 10.7902V0.380952H69.1591V15.619H66.3174L59.3058 5.20978Z" fill="white"/>
</svg>
